<svg xmlns="http://www.w3.org/2000/svg" xmlns:xlink="http://www.w3.org/1999/xlink" width="500" zoomAndPan="magnify" viewBox="0 0 375 374.999991" height="500" preserveAspectRatio="xMidYMid meet" version="1.0"><defs><g/><clipPath id="7d2e834207"><rect x="0" width="330" y="0" height="160"/></clipPath></defs><g transform="matrix(1, 0, 0, 1, 26, 108)"><g clip-path="url(#7d2e834207)"><g fill="#ec297b" fill-opacity="1"><g transform="translate(0.336727, 103.467406)"><g><path d="M 66.023438 -73.71875 C 70.082031 -76.546875 74.414062 -78.667969 79.019531 -80.082031 C 83.605469 -81.496094 88.285156 -82.199219 93.050781 -82.199219 C 96.8125 -82.199219 100.347656 -81.746094 103.652344 -80.839844 C 107.050781 -79.910156 110.015625 -78.585938 112.546875 -76.867188 C 115.1875 -75.074219 117.277344 -72.949219 118.808594 -70.492188 C 120.464844 -67.847656 121.292969 -64.972656 121.292969 -61.875 C 121.292969 -58.988281 120.679688 -56.359375 119.453125 -53.992188 C 118.234375 -51.636719 116.445312 -49.609375 114.085938 -47.910156 C 109.742188 -44.789062 104.132812 -43.230469 97.25 -43.230469 C 95.429688 -43.230469 93.8125 -43.296875 92.394531 -43.429688 C 90.859375 -43.570312 89.230469 -43.878906 87.503906 -44.34375 C 85.859375 -44.789062 84 -45.421875 81.925781 -46.242188 C 79.960938 -47.019531 77.480469 -48.054688 74.480469 -49.355469 L 76.265625 -53.480469 L 80.441406 -51.8125 C 80.496094 -51.949219 80.519531 -52.164062 80.519531 -52.460938 L 80.519531 -51.683594 C 80.519531 -51.519531 80.664062 -51.242188 80.945312 -50.84375 C 81.507812 -50.054688 82.4375 -49.179688 83.730469 -48.226562 L 81.0625 -44.609375 L 83.554688 -48.347656 L 84.273438 -47.871094 C 84.464844 -47.742188 84.894531 -47.472656 85.5625 -47.066406 C 86.300781 -46.617188 87.375 -45.945312 88.789062 -45.058594 C 90.140625 -44.207031 92.109375 -43.039062 94.695312 -41.550781 C 99.984375 -38.359375 103.855469 -34.851562 106.308594 -31.027344 C 108.863281 -27.050781 110.140625 -22.464844 110.140625 -17.265625 C 110.140625 -11.871094 108.917969 -6.921875 106.480469 -2.414062 C 104.074219 2.027344 100.671875 5.828125 96.277344 8.988281 C 92.015625 12.050781 86.976562 14.414062 81.15625 16.074219 C 75.4375 17.710938 69.128906 18.527344 62.234375 18.527344 C 56.160156 18.527344 50.636719 17.855469 45.65625 16.511719 C 40.578125 15.144531 36.171875 13.199219 32.441406 10.683594 C 28.535156 8.046875 25.507812 4.820312 23.359375 1.003906 C 21.175781 -2.875 20.085938 -7.128906 20.085938 -11.75 C 20.085938 -15.636719 20.914062 -19.292969 22.574219 -22.710938 C 24.183594 -26.023438 26.363281 -28.933594 29.101562 -31.4375 C 31.839844 -33.9375 35.03125 -35.890625 38.675781 -37.292969 C 42.3125 -38.691406 46.210938 -39.390625 50.363281 -39.390625 C 53.023438 -39.390625 55.640625 -39.09375 58.214844 -38.496094 C 60.785156 -37.898438 63.082031 -37.105469 65.105469 -36.117188 C 67.277344 -35.058594 69.078125 -33.8125 70.511719 -32.378906 C 72.46875 -30.421875 73.445312 -28.261719 73.445312 -25.902344 C 73.445312 -25.253906 73.40625 -24.6875 73.324219 -24.203125 C 73.128906 -23.015625 72.570312 -21.960938 71.648438 -21.042969 C 71.160156 -20.554688 70.507812 -20.058594 69.6875 -19.554688 C 69.101562 -19.191406 68.335938 -18.753906 67.386719 -18.234375 L 67.316406 -18.199219 L 67.242188 -18.160156 C 67.164062 -18.121094 67.105469 -18.085938 67.074219 -18.058594 C 67.089844 -18.070312 67.105469 -18.089844 67.117188 -18.117188 L 67.125 -18.113281 C 67.101562 -18.023438 67.089844 -17.902344 67.089844 -17.746094 C 67.089844 -17.347656 67.328125 -16.960938 67.800781 -16.582031 C 68.578125 -15.960938 69.601562 -15.648438 70.867188 -15.648438 C 72.332031 -15.648438 73.527344 -16.035156 74.449219 -16.8125 C 75.140625 -17.390625 75.484375 -18.0625 75.484375 -18.828125 C 75.484375 -19.257812 75.414062 -19.664062 75.277344 -20.046875 C 75.132812 -20.441406 74.847656 -20.898438 74.417969 -21.417969 C 73.859375 -22.089844 73.050781 -22.847656 71.984375 -23.6875 C 70.722656 -24.679688 69.167969 -25.832031 67.308594 -27.148438 L 69.910156 -30.816406 L 67.429688 -27.066406 C 62.007812 -30.652344 58.097656 -34.128906 55.695312 -37.5 C 53.058594 -41.199219 51.742188 -45.367188 51.742188 -50.003906 C 51.742188 -52.066406 52.050781 -54.074219 52.671875 -56.035156 C 53.222656 -57.777344 54.191406 -60.035156 55.574219 -62.808594 L 59.597656 -60.796875 L 57.84375 -56.65625 C 56.003906 -57.433594 54.605469 -57.933594 53.660156 -58.15625 C 52.796875 -58.355469 51.976562 -58.457031 51.203125 -58.457031 C 50.414062 -58.457031 49.785156 -58.25 49.316406 -57.835938 C 49.015625 -57.574219 48.863281 -57.242188 48.863281 -56.839844 C 48.863281 -56.550781 48.921875 -56.351562 49.042969 -56.242188 C 49.367188 -55.941406 49.9375 -55.753906 50.753906 -55.683594 L 50.878906 -55.667969 C 52.742188 -55.453125 54.265625 -54.894531 55.445312 -53.988281 C 57.132812 -52.6875 57.976562 -50.960938 57.976562 -48.804688 C 57.976562 -46.519531 57.046875 -44.53125 55.1875 -42.839844 C 53.9375 -41.703125 52.347656 -40.71875 50.410156 -39.878906 C 48.617188 -39.105469 46.574219 -38.507812 44.28125 -38.085938 C 42.054688 -37.675781 39.722656 -37.472656 37.292969 -37.472656 C 33.375 -37.472656 29.789062 -38.007812 26.535156 -39.078125 C 23.1875 -40.175781 20.292969 -41.75 17.851562 -43.800781 C 15.363281 -45.894531 13.417969 -48.390625 12.019531 -51.285156 C 10.601562 -54.222656 9.894531 -57.433594 9.894531 -60.914062 C 9.894531 -64.410156 10.644531 -67.691406 12.152344 -70.753906 C 13.613281 -73.726562 15.585938 -76.304688 18.070312 -78.496094 C 20.519531 -80.660156 23.382812 -82.355469 26.652344 -83.589844 C 29.921875 -84.820312 33.429688 -85.4375 37.171875 -85.4375 C 38.867188 -85.4375 40.480469 -85.347656 42.015625 -85.167969 C 43.601562 -84.980469 45.300781 -84.636719 47.117188 -84.136719 C 48.863281 -83.65625 50.789062 -83.011719 52.886719 -82.195312 C 54.925781 -81.40625 57.304688 -80.394531 60.019531 -79.160156 L 58.15625 -75.066406 L 59.871094 -79.222656 C 61.304688 -78.632812 62.519531 -78.097656 63.515625 -77.625 L 66.027344 -76.425781 C 66.839844 -76.042969 67.617188 -75.652344 68.355469 -75.261719 C 69.050781 -74.894531 69.847656 -74.464844 70.742188 -73.976562 L 68.589844 -70.027344 Z M 71.15625 -66.335938 L 68.875 -64.75 L 66.4375 -66.082031 C 65.574219 -66.550781 64.8125 -66.964844 64.148438 -67.3125 C 63.527344 -67.640625 62.863281 -67.972656 62.160156 -68.308594 L 59.636719 -69.511719 C 58.789062 -69.914062 57.726562 -70.378906 56.445312 -70.90625 L 56.371094 -70.9375 L 56.296875 -70.972656 C 53.734375 -72.136719 51.515625 -73.082031 49.636719 -73.8125 C 47.820312 -74.515625 46.1875 -75.066406 44.734375 -75.464844 C 43.355469 -75.84375 42.097656 -76.101562 40.964844 -76.234375 C 39.78125 -76.375 38.515625 -76.445312 37.171875 -76.445312 C 34.519531 -76.445312 32.070312 -76.019531 29.824219 -75.175781 C 27.582031 -74.328125 25.644531 -73.1875 24.019531 -71.753906 C 22.425781 -70.347656 21.160156 -68.691406 20.222656 -66.785156 C 19.332031 -64.972656 18.886719 -63.015625 18.886719 -60.914062 C 18.886719 -58.804688 19.296875 -56.898438 20.117188 -55.195312 C 20.957031 -53.457031 22.128906 -51.953125 23.636719 -50.6875 C 25.191406 -49.382812 27.09375 -48.359375 29.34375 -47.621094 C 31.683594 -46.851562 34.335938 -46.464844 37.292969 -46.464844 C 39.179688 -46.464844 40.964844 -46.621094 42.65625 -46.933594 C 44.277344 -47.230469 45.675781 -47.632812 46.839844 -48.136719 C 47.859375 -48.578125 48.625 -49.03125 49.136719 -49.492188 C 49.171875 -49.523438 49.195312 -49.546875 49.203125 -49.558594 C 49.179688 -49.53125 49.15625 -49.488281 49.128906 -49.4375 C 49.03125 -49.242188 48.984375 -49.03125 48.984375 -48.804688 C 48.984375 -48.007812 49.308594 -47.359375 49.960938 -46.859375 C 50.101562 -46.75 50.214844 -46.683594 50.304688 -46.652344 C 50.210938 -46.683594 50.058594 -46.710938 49.847656 -46.734375 L 50.363281 -51.203125 L 49.972656 -46.722656 C 47.113281 -46.972656 44.765625 -47.945312 42.929688 -49.640625 C 40.890625 -51.53125 39.871094 -53.929688 39.871094 -56.839844 C 39.871094 -59.953125 41.039062 -62.539062 43.378906 -64.59375 C 45.546875 -66.5 48.152344 -67.449219 51.203125 -67.449219 C 52.667969 -67.449219 54.167969 -67.273438 55.703125 -66.914062 C 57.152344 -66.574219 59.035156 -65.917969 61.347656 -64.9375 L 65.761719 -63.070312 L 63.617188 -58.785156 C 62.445312 -56.4375 61.65625 -54.617188 61.246094 -53.324219 C 60.90625 -52.246094 60.734375 -51.140625 60.734375 -50.003906 C 60.734375 -47.285156 61.496094 -44.855469 63.019531 -42.71875 C 64.773438 -40.253906 67.898438 -37.539062 72.390625 -34.570312 L 72.449219 -34.527344 L 72.507812 -34.488281 C 74.488281 -33.082031 76.167969 -31.839844 77.546875 -30.753906 C 79.121094 -29.515625 80.386719 -28.3125 81.351562 -27.144531 C 82.4375 -25.828125 83.230469 -24.488281 83.726562 -23.121094 C 84.226562 -21.746094 84.480469 -20.3125 84.480469 -18.828125 C 84.480469 -15.273438 83.066406 -12.304688 80.238281 -9.929688 C 77.644531 -7.746094 74.519531 -6.65625 70.867188 -6.65625 C 67.5 -6.65625 64.605469 -7.625 62.183594 -9.558594 C 59.460938 -11.738281 58.097656 -14.46875 58.097656 -17.746094 C 58.097656 -19.609375 58.527344 -21.265625 59.390625 -22.714844 C 60.277344 -24.207031 61.554688 -25.371094 63.222656 -26.207031 L 65.234375 -22.183594 L 63.078125 -26.132812 C 63.890625 -26.574219 64.523438 -26.933594 64.972656 -27.210938 C 65.128906 -27.308594 65.25 -27.386719 65.339844 -27.453125 C 65.355469 -27.46875 65.371094 -27.476562 65.375 -27.480469 C 65.351562 -27.460938 65.324219 -27.433594 65.289062 -27.402344 C 64.851562 -26.960938 64.574219 -26.390625 64.453125 -25.679688 C 64.449219 -25.65625 64.445312 -25.632812 64.445312 -25.617188 C 64.445312 -25.621094 64.445312 -25.628906 64.445312 -25.640625 C 64.449219 -25.707031 64.453125 -25.796875 64.453125 -25.902344 C 64.453125 -25.765625 64.472656 -25.660156 64.507812 -25.582031 C 64.457031 -25.6875 64.339844 -25.832031 64.152344 -26.019531 C 63.425781 -26.746094 62.429688 -27.417969 61.160156 -28.035156 C 59.746094 -28.726562 58.089844 -29.292969 56.179688 -29.734375 C 54.277344 -30.175781 52.339844 -30.398438 50.363281 -30.398438 C 47.324219 -30.398438 44.503906 -29.898438 41.90625 -28.898438 C 39.316406 -27.902344 37.070312 -26.535156 35.171875 -24.800781 C 33.273438 -23.070312 31.773438 -21.0625 30.664062 -18.78125 C 29.609375 -16.601562 29.078125 -14.257812 29.078125 -11.75 C 29.078125 -8.699219 29.785156 -5.917969 31.199219 -3.402344 C 32.648438 -0.824219 34.742188 1.386719 37.46875 3.226562 C 40.375 5.1875 43.882812 6.71875 47.996094 7.828125 C 52.210938 8.964844 56.957031 9.53125 62.234375 9.53125 C 68.289062 9.53125 73.773438 8.832031 78.6875 7.429688 C 83.5 6.050781 87.613281 4.136719 91.027344 1.683594 C 94.304688 -0.671875 96.820312 -3.464844 98.570312 -6.699219 C 100.289062 -9.867188 101.144531 -13.390625 101.144531 -17.265625 C 101.144531 -20.703125 100.34375 -23.671875 98.742188 -26.171875 C 97.039062 -28.820312 94.195312 -31.347656 90.210938 -33.753906 C 87.519531 -35.304688 85.453125 -36.53125 84.003906 -37.441406 C 82.621094 -38.3125 81.578125 -38.960938 80.875 -39.390625 C 80.105469 -39.863281 79.574219 -40.195312 79.285156 -40.386719 L 78.476562 -40.925781 L 78.390625 -40.988281 C 73.816406 -44.367188 71.527344 -47.929688 71.527344 -51.683594 L 71.527344 -52.460938 C 71.527344 -53.320312 71.714844 -54.214844 72.089844 -55.152344 L 73.804688 -59.441406 L 78.050781 -57.609375 C 80.964844 -56.347656 83.359375 -55.347656 85.234375 -54.605469 C 86.996094 -53.90625 88.535156 -53.382812 89.847656 -53.027344 C 91.082031 -52.691406 92.207031 -52.476562 93.230469 -52.382812 C 94.371094 -52.277344 95.710938 -52.222656 97.25 -52.222656 C 102.199219 -52.222656 106.058594 -53.21875 108.832031 -55.214844 C 110.03125 -56.074219 110.90625 -57.042969 111.46875 -58.125 C 112.019531 -59.195312 112.296875 -60.445312 112.296875 -61.875 C 112.296875 -63.253906 111.925781 -64.539062 111.183594 -65.726562 C 110.320312 -67.109375 109.089844 -68.34375 107.492188 -69.425781 C 105.785156 -70.585938 103.714844 -71.5 101.277344 -72.167969 C 98.75 -72.859375 96.007812 -73.207031 93.050781 -73.207031 C 89.1875 -73.207031 85.390625 -72.632812 81.664062 -71.488281 C 77.953125 -70.34375 74.453125 -68.628906 71.15625 -66.335938 Z M 85.980469 -66.164062 C 90.796875 -64.222656 93.953125 -63.253906 95.449219 -63.253906 C 95.253906 -63.253906 95.082031 -63.191406 94.929688 -63.066406 C 94.808594 -62.96875 94.691406 -62.8125 94.582031 -62.605469 C 94.402344 -62.265625 94.3125 -61.902344 94.3125 -61.515625 C 94.3125 -61.046875 94.449219 -60.628906 94.726562 -60.253906 C 94.804688 -60.144531 94.886719 -60.058594 94.960938 -59.996094 L 94.972656 -59.988281 C 94.949219 -60.003906 94.921875 -60.019531 94.886719 -60.039062 C 94.296875 -60.34375 93.445312 -60.496094 92.332031 -60.496094 C 90.566406 -60.496094 88.8125 -59.816406 87.066406 -58.453125 L 84.296875 -61.996094 Z M 82.617188 -57.824219 L 75.386719 -60.738281 L 81.53125 -65.539062 C 84.902344 -68.171875 88.503906 -69.488281 92.332031 -69.488281 C 94.898438 -69.488281 97.125 -69.003906 99.011719 -68.03125 C 100.253906 -67.390625 101.234375 -66.578125 101.960938 -65.59375 C 102.855469 -64.382812 103.304688 -63.019531 103.304688 -61.515625 C 103.304688 -59.382812 102.417969 -57.585938 100.648438 -56.125 C 99.136719 -54.882812 97.40625 -54.261719 95.449219 -54.261719 C 92.789062 -54.261719 88.511719 -55.449219 82.617188 -57.824219 Z M 82.617188 -57.824219 "/></g></g></g><g fill="#ec297b" fill-opacity="1"><g transform="translate(110.281469, 103.467406)"><g><path d="M 36.691406 -49.945312 C 39.074219 -49.945312 40.996094 -49.261719 42.460938 -47.894531 C 44.011719 -46.445312 44.789062 -44.511719 44.789062 -42.089844 C 44.789062 -40.410156 44.554688 -38.714844 44.089844 -37.007812 C 43.578125 -35.136719 42.914062 -33.652344 42.089844 -32.554688 L 41.957031 -32.378906 L 41.808594 -32.214844 C 40.035156 -30.285156 37.574219 -29.320312 34.414062 -29.320312 L 28.058594 -29.320312 L 28.058594 -33.816406 L 32.433594 -32.777344 L 31.054688 -26.960938 C 30.636719 -25.175781 30.296875 -23.523438 30.03125 -22.007812 L 29.3125 -17.875 C 29.15625 -16.972656 29.078125 -16.410156 29.078125 -16.1875 C 29.078125 -16.015625 29.089844 -15.90625 29.105469 -15.859375 C 29.078125 -15.929688 29.039062 -15.988281 28.980469 -16.035156 L 28.984375 -16.035156 C 29.007812 -16.019531 29.046875 -16.007812 29.09375 -15.992188 C 29.308594 -15.921875 29.605469 -15.886719 29.976562 -15.886719 C 30.210938 -15.886719 30.488281 -15.933594 30.8125 -16.023438 C 31.429688 -16.195312 32.246094 -16.460938 33.261719 -16.824219 L 34.773438 -12.589844 L 32.890625 -16.671875 C 34.527344 -17.429688 36.074219 -17.808594 37.53125 -17.808594 C 39.46875 -17.808594 41.039062 -17.164062 42.246094 -15.882812 C 43.378906 -14.675781 43.949219 -13.140625 43.949219 -11.273438 C 43.949219 -9.15625 43.097656 -7.066406 41.394531 -4.996094 C 40.121094 -3.445312 38.296875 -1.835938 35.929688 -0.164062 C 33.492188 1.617188 30.695312 3.003906 27.546875 3.992188 C 24.429688 4.96875 21.363281 5.457031 18.347656 5.457031 C 13.097656 5.457031 8.699219 3.964844 5.144531 0.988281 C 1.355469 -2.1875 -0.539062 -6.195312 -0.539062 -11.03125 C -0.539062 -11.917969 -0.515625 -12.746094 -0.472656 -13.515625 C -0.414062 -14.472656 -0.234375 -15.566406 0.0742188 -16.800781 C 0.335938 -17.847656 0.722656 -19.175781 1.226562 -20.78125 L 3.144531 -26.886719 C 3.765625 -28.835938 4.210938 -30.296875 4.472656 -31.265625 C 4.734375 -32.242188 5.019531 -33.417969 5.324219 -34.789062 L 9.714844 -33.816406 L 9.203125 -29.347656 C 6.8125 -29.621094 4.90625 -30.429688 3.480469 -31.773438 C 1.839844 -33.320312 1.019531 -35.320312 1.019531 -37.773438 C 1.019531 -39.035156 1.234375 -40.242188 1.664062 -41.390625 C 2.089844 -42.527344 2.835938 -43.714844 3.902344 -44.957031 C 4.757812 -45.953125 5.941406 -47.121094 7.457031 -48.460938 C 8.855469 -49.691406 10.695312 -51.246094 12.972656 -53.117188 C 17.113281 -56.597656 20.476562 -59.132812 23.0625 -60.726562 C 26.183594 -62.652344 28.847656 -63.613281 31.058594 -63.613281 C 33.097656 -63.613281 34.816406 -62.914062 36.214844 -61.515625 C 37.613281 -60.121094 38.3125 -58.398438 38.3125 -56.359375 L 38.3125 -55.878906 C 38.3125 -55.28125 38.1875 -54.570312 37.941406 -53.746094 L 37.402344 -51.949219 C 37.148438 -51.105469 36.777344 -49.945312 36.28125 -48.460938 L 32.015625 -49.882812 L 36.332031 -48.613281 C 35.976562 -47.410156 35.773438 -46.664062 35.722656 -46.382812 C 35.632812 -45.882812 35.5 -45.246094 35.328125 -44.472656 L 30.9375 -45.445312 L 30.9375 -49.945312 Z M 36.691406 -40.949219 L 25.332031 -40.949219 L 26.546875 -46.421875 C 26.695312 -47.085938 26.804688 -47.609375 26.871094 -47.988281 C 26.980469 -48.585938 27.257812 -49.640625 27.703125 -51.152344 L 27.726562 -51.230469 L 27.75 -51.304688 C 28.214844 -52.703125 28.5625 -53.777344 28.789062 -54.535156 L 29.328125 -56.332031 C 29.355469 -56.417969 29.367188 -56.46875 29.375 -56.492188 C 29.335938 -56.320312 29.320312 -56.117188 29.320312 -55.878906 L 29.320312 -56.359375 C 29.320312 -55.917969 29.496094 -55.515625 29.855469 -55.15625 C 30.214844 -54.800781 30.613281 -54.621094 31.058594 -54.621094 C 30.945312 -54.621094 30.6875 -54.539062 30.277344 -54.378906 C 29.585938 -54.105469 28.753906 -53.671875 27.78125 -53.070312 C 25.570312 -51.707031 22.539062 -49.40625 18.683594 -46.167969 C 16.484375 -44.363281 14.726562 -42.878906 13.40625 -41.714844 C 12.207031 -40.65625 11.3125 -39.785156 10.730469 -39.101562 C 10.355469 -38.664062 10.140625 -38.375 10.085938 -38.230469 C 10.039062 -38.101562 10.011719 -37.949219 10.011719 -37.773438 C 10.011719 -37.734375 10.011719 -37.710938 10.015625 -37.699219 C 10.007812 -37.738281 9.996094 -37.78125 9.976562 -37.835938 C 9.90625 -38.019531 9.796875 -38.179688 9.648438 -38.316406 C 9.597656 -38.367188 9.546875 -38.402344 9.5 -38.433594 L 9.511719 -38.429688 C 9.675781 -38.367188 9.910156 -38.320312 10.222656 -38.28125 L 15.1875 -37.714844 L 14.101562 -32.839844 C 13.769531 -31.335938 13.453125 -30.03125 13.15625 -28.929688 C 12.859375 -27.820312 12.378906 -26.246094 11.726562 -24.195312 L 9.804688 -18.070312 C 9.351562 -16.640625 9.015625 -15.488281 8.800781 -14.617188 C 8.628906 -13.929688 8.53125 -13.386719 8.507812 -12.984375 C 8.472656 -12.394531 8.453125 -11.742188 8.453125 -11.03125 C 8.453125 -8.992188 9.277344 -7.285156 10.921875 -5.90625 C 12.804688 -4.328125 15.28125 -3.539062 18.347656 -3.539062 C 20.445312 -3.539062 22.617188 -3.886719 24.855469 -4.589844 C 27.0625 -5.28125 29.023438 -6.253906 30.742188 -7.511719 C 32.453125 -8.71875 33.6875 -9.785156 34.449219 -10.710938 C 34.703125 -11.019531 34.875 -11.273438 34.964844 -11.472656 L 34.976562 -11.496094 C 34.960938 -11.433594 34.953125 -11.359375 34.953125 -11.273438 C 34.953125 -11.152344 34.984375 -11 35.039062 -10.816406 C 35.167969 -10.417969 35.386719 -10.050781 35.695312 -9.71875 C 36.035156 -9.359375 36.425781 -9.101562 36.871094 -8.945312 C 37.117188 -8.855469 37.335938 -8.8125 37.53125 -8.8125 C 37.390625 -8.8125 37.101562 -8.710938 36.660156 -8.507812 L 36.476562 -8.421875 L 36.289062 -8.355469 C 35.066406 -7.921875 34.042969 -7.585938 33.21875 -7.359375 C 32.105469 -7.050781 31.027344 -6.894531 29.976562 -6.894531 C 27.171875 -6.894531 24.867188 -7.6875 23.058594 -9.265625 C 21.078125 -11 20.085938 -13.308594 20.085938 -16.1875 C 20.085938 -16.925781 20.207031 -18 20.453125 -19.417969 L 21.171875 -23.558594 C 21.464844 -25.242188 21.84375 -27.066406 22.304688 -29.039062 L 24.503906 -38.3125 L 34.414062 -38.3125 C 34.820312 -38.3125 35.121094 -38.347656 35.316406 -38.414062 C 35.289062 -38.40625 35.242188 -38.367188 35.175781 -38.292969 L 38.492188 -35.253906 L 34.894531 -37.953125 C 35.03125 -38.132812 35.203125 -38.609375 35.414062 -39.375 C 35.667969 -40.308594 35.792969 -41.210938 35.792969 -42.089844 C 35.792969 -42.140625 35.792969 -42.175781 35.789062 -42.195312 C 35.796875 -42.15625 35.808594 -42.105469 35.832031 -42.046875 C 35.925781 -41.78125 36.089844 -41.539062 36.324219 -41.320312 C 36.523438 -41.132812 36.726562 -41.007812 36.929688 -40.945312 L 36.941406 -40.9375 C 36.878906 -40.945312 36.792969 -40.949219 36.691406 -40.949219 Z M 36.691406 -40.949219 "/></g></g></g><g fill="#ec297b" fill-opacity="1"><g transform="translate(148.768122, 103.467406)"><g><path d="M 57.144531 -18.175781 C 56.742188 -16.429688 56.539062 -15.367188 56.539062 -14.988281 C 56.539062 -15.40625 56.40625 -15.738281 56.144531 -15.984375 C 55.957031 -16.160156 55.789062 -16.25 55.640625 -16.25 C 55.882812 -16.25 56.074219 -16.277344 56.210938 -16.339844 L 56.5 -16.46875 L 56.800781 -16.554688 C 58.886719 -17.148438 60.214844 -17.449219 60.796875 -17.449219 C 62.597656 -17.449219 64.136719 -16.808594 65.414062 -15.53125 C 66.691406 -14.253906 67.332031 -12.671875 67.332031 -10.792969 C 67.332031 -8.324219 66.261719 -5.957031 64.128906 -3.691406 C 62.523438 -1.988281 60.546875 -0.433594 58.191406 0.976562 C 55.917969 2.34375 53.449219 3.476562 50.789062 4.378906 C 47.960938 5.335938 45.261719 5.816406 42.6875 5.816406 C 38.648438 5.816406 35.269531 4.457031 32.554688 1.742188 C 29.835938 -0.976562 28.480469 -4.355469 28.480469 -8.394531 L 28.480469 -9.652344 C 28.480469 -10.304688 28.535156 -11.015625 28.644531 -11.789062 L 33.097656 -11.152344 L 36.585938 -8.316406 C 35.554688 -7.046875 34.722656 -6.015625 34.089844 -5.226562 C 33.417969 -4.386719 32.824219 -3.667969 32.3125 -3.070312 C 31.710938 -2.367188 31.121094 -1.753906 30.542969 -1.230469 C 30.15625 -0.878906 29.75 -0.488281 29.320312 -0.0585938 C 27.402344 1.859375 25.222656 3.351562 22.789062 4.417969 C 20.292969 5.511719 17.894531 6.054688 15.589844 6.054688 C 10.515625 6.054688 6.390625 3.992188 3.210938 -0.132812 C 0.3125 -3.898438 -1.140625 -8.613281 -1.140625 -14.269531 C -1.140625 -18.839844 -0.273438 -23.308594 1.453125 -27.675781 C 3.144531 -31.941406 5.351562 -35.753906 8.082031 -39.109375 C 10.875 -42.542969 14.09375 -45.300781 17.738281 -47.375 C 21.585938 -49.566406 25.585938 -50.664062 29.738281 -50.664062 C 35.804688 -50.664062 40.808594 -48.4375 44.738281 -43.988281 L 41.371094 -41.011719 L 38.738281 -44.65625 C 40.265625 -45.757812 41.597656 -46.660156 42.730469 -47.359375 C 43.933594 -48.097656 45.023438 -48.6875 46 -49.128906 C 47.140625 -49.640625 48.234375 -49.988281 49.28125 -50.175781 C 50.21875 -50.339844 51.21875 -50.421875 52.28125 -50.421875 C 54.972656 -50.421875 57.234375 -49.652344 59.070312 -48.109375 C 61.230469 -46.296875 62.21875 -43.996094 62.046875 -41.210938 L 57.558594 -41.488281 L 62.054688 -41.488281 C 62.054688 -40.25 61.871094 -39.019531 61.503906 -37.800781 L 57.199219 -39.089844 L 61.585938 -38.113281 L 57.152344 -18.207031 Z M 48.371094 -20.164062 L 52.84375 -40.226562 L 52.890625 -40.382812 C 53.003906 -40.761719 53.0625 -41.128906 53.0625 -41.488281 L 53.0625 -41.628906 L 53.070312 -41.769531 C 53.066406 -41.691406 53.089844 -41.585938 53.148438 -41.453125 C 53.199219 -41.335938 53.246094 -41.257812 53.285156 -41.222656 C 53.125 -41.363281 52.789062 -41.429688 52.28125 -41.429688 C 51.746094 -41.429688 51.265625 -41.394531 50.84375 -41.320312 C 50.535156 -41.261719 50.148438 -41.132812 49.691406 -40.925781 C 49.066406 -40.644531 48.320312 -40.238281 47.445312 -39.699219 C 46.5 -39.117188 45.351562 -38.339844 44.003906 -37.363281 L 40.699219 -34.980469 L 38 -38.03125 C 35.859375 -40.457031 33.101562 -41.667969 29.738281 -41.667969 C 27.175781 -41.667969 24.660156 -40.96875 22.191406 -39.5625 C 19.519531 -38.039062 17.144531 -36 15.058594 -33.4375 C 12.914062 -30.796875 11.164062 -27.773438 9.816406 -24.367188 C 8.507812 -21.058594 7.855469 -17.695312 7.855469 -14.269531 C 7.855469 -10.652344 8.683594 -7.769531 10.335938 -5.621094 C 11.714844 -3.832031 13.464844 -2.9375 15.589844 -2.9375 C 16.640625 -2.9375 17.839844 -3.230469 19.183594 -3.820312 C 20.582031 -4.433594 21.84375 -5.296875 22.960938 -6.417969 C 23.492188 -6.949219 24.003906 -7.4375 24.496094 -7.882812 C 24.796875 -8.15625 25.125 -8.503906 25.484375 -8.921875 C 25.929688 -9.441406 26.457031 -10.082031 27.066406 -10.84375 C 27.714844 -11.652344 28.558594 -12.699219 29.605469 -13.988281 L 39.84375 -26.585938 L 37.546875 -10.515625 C 37.496094 -10.167969 37.472656 -9.878906 37.472656 -9.652344 L 37.472656 -8.394531 C 37.472656 -6.835938 37.953125 -5.578125 38.914062 -4.617188 C 39.875 -3.65625 41.132812 -3.175781 42.6875 -3.175781 C 44.273438 -3.175781 46.011719 -3.5 47.902344 -4.140625 C 49.953125 -4.835938 51.84375 -5.699219 53.566406 -6.734375 C 55.210938 -7.71875 56.550781 -8.761719 57.582031 -9.859375 C 57.933594 -10.230469 58.175781 -10.550781 58.304688 -10.816406 C 58.332031 -10.867188 58.34375 -10.902344 58.351562 -10.921875 C 58.339844 -10.886719 58.335938 -10.84375 58.335938 -10.792969 C 58.335938 -10.191406 58.578125 -9.648438 59.054688 -9.171875 C 59.535156 -8.691406 60.113281 -8.453125 60.796875 -8.453125 C 61.085938 -8.453125 61.324219 -8.472656 61.507812 -8.515625 C 61.425781 -8.496094 61.296875 -8.464844 61.121094 -8.417969 C 60.695312 -8.308594 60.078125 -8.136719 59.273438 -7.90625 L 58.039062 -12.230469 L 59.863281 -8.121094 C 58.5625 -7.542969 57.15625 -7.253906 55.640625 -7.253906 C 53.410156 -7.253906 51.523438 -7.980469 49.980469 -9.4375 C 48.355469 -10.964844 47.546875 -12.816406 47.546875 -14.988281 C 47.546875 -16.050781 47.824219 -17.785156 48.378906 -20.195312 Z M 32.734375 -29.199219 C 32.367188 -29.199219 31.972656 -28.949219 31.550781 -28.453125 C 30.941406 -27.730469 30.636719 -26.921875 30.636719 -26.019531 C 30.636719 -25.6875 30.660156 -25.4375 30.707031 -25.277344 C 30.6875 -25.34375 30.628906 -25.433594 30.527344 -25.550781 C 30.363281 -25.738281 30.183594 -25.867188 29.976562 -25.949219 C 29.941406 -25.960938 29.914062 -25.96875 29.902344 -25.972656 C 29.949219 -25.964844 30.011719 -25.960938 30.097656 -25.960938 C 30.046875 -25.960938 30 -25.953125 29.960938 -25.941406 C 29.96875 -25.945312 29.992188 -25.960938 30.035156 -25.984375 C 30.328125 -26.171875 30.609375 -26.441406 30.878906 -26.800781 C 31.207031 -27.238281 31.476562 -27.746094 31.683594 -28.324219 C 31.867188 -28.832031 31.957031 -29.382812 31.957031 -29.976562 C 31.957031 -30.074219 31.953125 -30.152344 31.945312 -30.214844 C 31.941406 -30.222656 31.941406 -30.230469 31.941406 -30.230469 C 31.945312 -30.21875 31.949219 -30.203125 31.957031 -30.183594 C 32.023438 -29.976562 32.152344 -29.777344 32.34375 -29.585938 C 32.535156 -29.394531 32.734375 -29.265625 32.941406 -29.195312 C 32.960938 -29.191406 32.976562 -29.1875 32.988281 -29.183594 C 32.988281 -29.183594 32.980469 -29.183594 32.972656 -29.1875 C 32.910156 -29.195312 32.832031 -29.199219 32.734375 -29.199219 Z M 32.734375 -38.191406 C 35.21875 -38.191406 37.207031 -37.445312 38.703125 -35.945312 C 40.203125 -34.449219 40.949219 -32.460938 40.949219 -29.976562 C 40.949219 -28.335938 40.683594 -26.769531 40.144531 -25.277344 C 39.632812 -23.855469 38.941406 -22.5625 38.074219 -21.40625 C 37.140625 -20.164062 36.0625 -19.15625 34.835938 -18.382812 C 33.34375 -17.4375 31.765625 -16.96875 30.097656 -16.96875 C 27.410156 -16.96875 25.289062 -17.863281 23.734375 -19.65625 C 22.339844 -21.261719 21.644531 -23.382812 21.644531 -26.019531 C 21.644531 -29.117188 22.660156 -31.863281 24.6875 -34.261719 C 26.902344 -36.882812 29.585938 -38.191406 32.734375 -38.191406 Z M 32.734375 -38.191406 "/></g></g></g><g fill="#ec297b" fill-opacity="1"><g transform="translate(210.51462, 103.467406)"><g><path d="M 35.117188 -33.667969 C 33.019531 -32.902344 31.5 -31.871094 30.558594 -30.574219 C 29.652344 -29.324219 29.199219 -27.6875 29.199219 -25.660156 C 29.199219 -23.527344 29.730469 -21.917969 30.792969 -20.832031 C 31.828125 -19.773438 33.355469 -19.246094 35.375 -19.246094 C 36.058594 -19.246094 36.601562 -19.261719 37.007812 -19.292969 C 37.253906 -19.3125 37.539062 -19.363281 37.871094 -19.453125 C 38.203125 -19.542969 38.703125 -19.746094 39.371094 -20.066406 C 40.34375 -20.53125 41.699219 -21.136719 43.4375 -21.878906 C 44.28125 -22.242188 45.160156 -22.515625 46.0625 -22.695312 C 46.953125 -22.875 47.789062 -22.964844 48.566406 -22.964844 C 50.839844 -22.964844 52.671875 -22.242188 54.054688 -20.804688 C 55.390625 -19.414062 56.058594 -17.59375 56.058594 -15.347656 C 56.058594 -13.277344 55.273438 -11.128906 53.703125 -8.914062 C 52.472656 -7.175781 50.699219 -5.308594 48.382812 -3.308594 C 40.898438 3.09375 32.925781 6.296875 24.460938 6.296875 C 21 6.296875 17.714844 5.664062 14.617188 4.40625 C 11.527344 3.152344 8.816406 1.40625 6.480469 -0.832031 C 4.152344 -3.0625 2.308594 -5.660156 0.949219 -8.617188 C -0.441406 -11.648438 -1.140625 -14.894531 -1.140625 -18.347656 C -1.140625 -22.78125 -0.175781 -27.023438 1.757812 -31.074219 C 3.636719 -35.019531 6.160156 -38.480469 9.328125 -41.464844 C 12.46875 -44.421875 16.078125 -46.785156 20.15625 -48.554688 C 24.324219 -50.359375 28.71875 -51.261719 33.335938 -51.261719 C 39.144531 -51.261719 43.972656 -49.796875 47.816406 -46.863281 C 52.03125 -43.644531 54.140625 -39.496094 54.140625 -34.414062 C 54.140625 -30.355469 52.75 -26.96875 49.972656 -24.246094 C 47.21875 -21.550781 43.832031 -20.207031 39.8125 -20.207031 C 36.296875 -20.207031 33.347656 -21.335938 30.960938 -23.597656 C 28.507812 -25.921875 27.28125 -28.886719 27.28125 -32.496094 C 27.28125 -33.886719 27.503906 -35.21875 27.953125 -36.5 C 28.324219 -37.558594 28.894531 -38.765625 29.671875 -40.125 L 33.574219 -37.890625 Z M 32.035156 -42.117188 L 43.574219 -46.328125 L 37.480469 -35.660156 C 36.976562 -34.78125 36.628906 -34.070312 36.441406 -33.527344 C 36.328125 -33.210938 36.273438 -32.867188 36.273438 -32.496094 C 36.273438 -31.46875 36.566406 -30.675781 37.148438 -30.125 C 37.800781 -29.507812 38.6875 -29.199219 39.8125 -29.199219 C 41.386719 -29.199219 42.675781 -29.691406 43.679688 -30.671875 C 44.660156 -31.628906 45.148438 -32.878906 45.148438 -34.414062 C 45.148438 -36.527344 44.21875 -38.296875 42.359375 -39.714844 C 40.125 -41.417969 37.117188 -42.269531 33.335938 -42.269531 C 29.960938 -42.269531 26.757812 -41.613281 23.730469 -40.300781 C 20.617188 -38.953125 17.871094 -37.15625 15.496094 -34.917969 C 13.144531 -32.707031 11.273438 -30.132812 9.875 -27.203125 C 8.527344 -24.378906 7.855469 -21.425781 7.855469 -18.347656 C 7.855469 -16.203125 8.277344 -14.210938 9.125 -12.367188 C 10.003906 -10.449219 11.199219 -8.765625 12.703125 -7.324219 C 14.207031 -5.882812 15.972656 -4.75 18 -3.925781 C 20.015625 -3.109375 22.171875 -2.699219 24.460938 -2.699219 C 30.710938 -2.699219 36.726562 -5.171875 42.507812 -10.121094 C 44.269531 -11.640625 45.554688 -12.96875 46.363281 -14.109375 C 46.667969 -14.539062 46.878906 -14.90625 47.003906 -15.214844 C 47.035156 -15.296875 47.058594 -15.363281 47.070312 -15.414062 C 47.066406 -15.40625 47.066406 -15.382812 47.066406 -15.347656 L 47.09375 -15.339844 C 47.179688 -15.066406 47.339844 -14.8125 47.570312 -14.570312 C 47.820312 -14.3125 48.097656 -14.128906 48.402344 -14.023438 C 48.480469 -13.996094 48.546875 -13.980469 48.605469 -13.96875 L 48.617188 -13.96875 C 48.601562 -13.96875 48.585938 -13.96875 48.566406 -13.96875 C 48.382812 -13.96875 48.136719 -13.9375 47.828125 -13.878906 C 47.535156 -13.820312 47.25 -13.730469 46.976562 -13.613281 C 45.355469 -12.917969 44.113281 -12.363281 43.25 -11.953125 C 42.078125 -11.390625 41.058594 -10.996094 40.191406 -10.765625 C 39.324219 -10.53125 38.492188 -10.386719 37.699219 -10.324219 C 37.0625 -10.277344 36.289062 -10.253906 35.375 -10.253906 C 30.835938 -10.253906 27.167969 -11.683594 24.367188 -14.539062 C 21.59375 -17.375 20.207031 -21.082031 20.207031 -25.660156 C 20.207031 -29.632812 21.230469 -33.03125 23.28125 -35.855469 C 25.296875 -38.636719 28.214844 -40.722656 32.035156 -42.117188 Z M 32.035156 -42.117188 "/></g></g></g><g fill="#ec297b" fill-opacity="1"><g transform="translate(261.230669, 103.467406)"><g><path d="M 24.792969 -36.304688 C 33.992188 -46.035156 42.4375 -50.902344 50.125 -50.902344 C 54.492188 -50.902344 58.148438 -49.546875 61.085938 -46.832031 C 64.128906 -44.023438 65.652344 -40.5625 65.652344 -36.453125 C 65.652344 -32.53125 64.316406 -29.175781 61.644531 -26.386719 C 58.921875 -23.546875 55.601562 -22.125 51.683594 -22.125 C 48.679688 -22.125 46.039062 -23.070312 43.765625 -24.964844 C 41.25 -27.0625 39.992188 -29.613281 39.992188 -32.617188 C 39.992188 -33.742188 40.269531 -35.136719 40.820312 -36.796875 L 45.085938 -35.375 L 47 -31.304688 C 46.003906 -30.835938 45.121094 -30.273438 44.347656 -29.613281 C 43.5 -28.894531 42.613281 -27.933594 41.683594 -26.738281 L 38.132812 -29.5 L 42.371094 -31.003906 C 43.148438 -28.8125 44.195312 -26.632812 45.515625 -24.457031 C 46.855469 -22.246094 48.355469 -20.207031 50.015625 -18.328125 C 51.726562 -16.460938 53.480469 -15.527344 55.28125 -15.527344 L 56.058594 -15.527344 C 55.96875 -15.527344 55.90625 -15.523438 55.867188 -15.515625 L 56.078125 -15.5625 C 56.582031 -15.664062 57.050781 -15.738281 57.480469 -15.792969 C 57.984375 -15.855469 58.410156 -15.886719 58.757812 -15.886719 C 60.730469 -15.886719 62.328125 -15.238281 63.554688 -13.941406 C 64.714844 -12.714844 65.292969 -11.144531 65.292969 -9.234375 C 65.292969 -6.894531 64.179688 -4.683594 61.953125 -2.59375 C 60.429688 -1.167969 58.605469 0.171875 56.476562 1.417969 C 54.359375 2.664062 52.046875 3.695312 49.542969 4.511719 C 46.890625 5.382812 44.445312 5.816406 42.210938 5.816406 C 38.605469 5.816406 35.511719 4.789062 32.933594 2.738281 C 30.753906 1.007812 28.488281 -1.808594 26.128906 -5.707031 C 24.832031 -7.957031 23.792969 -9.921875 23.015625 -11.605469 C 22.261719 -13.246094 21.507812 -15.027344 20.753906 -16.949219 L 24.941406 -18.585938 L 29.324219 -17.585938 L 26.808594 -6.554688 C 26.023438 -3.027344 24.445312 -0.308594 22.070312 1.609375 C 19.6875 3.535156 16.6875 4.496094 13.070312 4.496094 L 9.234375 4.496094 C 8.539062 4.496094 7.96875 4.523438 7.511719 4.582031 C 7.199219 4.621094 6.917969 4.683594 6.667969 4.773438 C 6.457031 4.851562 6.203125 4.984375 5.910156 5.179688 C 5.421875 5.507812 4.824219 5.949219 4.128906 6.507812 L -5.75 14.410156 L 10.746094 -61.890625 L 10.785156 -62.03125 C 10.859375 -62.292969 10.90625 -62.546875 10.921875 -62.796875 C 10.957031 -63.246094 10.972656 -63.621094 10.972656 -63.914062 C 10.972656 -64.15625 10.960938 -64.332031 10.9375 -64.441406 C 10.960938 -64.328125 11.03125 -64.179688 11.148438 -64 C 11.175781 -63.953125 11.203125 -63.917969 11.226562 -63.890625 C 11.21875 -63.898438 11.203125 -63.914062 11.179688 -63.933594 C 11.058594 -64.042969 10.882812 -64.171875 10.65625 -64.316406 L 5.839844 -67.382812 L 9.949219 -71.347656 C 12.5625 -73.867188 15.488281 -75.855469 18.722656 -77.308594 C 22.066406 -78.8125 25.339844 -79.5625 28.539062 -79.5625 C 31.90625 -79.5625 34.675781 -78.609375 36.84375 -76.703125 C 39.183594 -74.648438 40.351562 -72.023438 40.351562 -68.828125 C 40.351562 -68.054688 40.242188 -67.121094 40.023438 -66.03125 L 40.011719 -65.976562 L 32.449219 -32.230469 L 28.058594 -33.214844 Z M 20.09375 -18.246094 L 31.226562 -67.894531 L 35.613281 -66.910156 L 31.203125 -67.792969 C 31.304688 -68.300781 31.355469 -68.648438 31.355469 -68.828125 C 31.355469 -69.3125 31.207031 -69.683594 30.90625 -69.949219 C 30.4375 -70.363281 29.648438 -70.570312 28.539062 -70.570312 C 26.625 -70.570312 24.578125 -70.082031 22.40625 -69.105469 C 20.125 -68.078125 18.054688 -66.667969 16.191406 -64.875 L 13.070312 -68.109375 L 15.484375 -71.902344 C 16.921875 -70.992188 17.996094 -69.976562 18.710938 -68.863281 C 19.546875 -67.5625 19.964844 -65.914062 19.964844 -63.914062 C 19.964844 -63.40625 19.941406 -62.820312 19.894531 -62.152344 C 19.832031 -61.285156 19.679688 -60.417969 19.433594 -59.558594 L 15.109375 -60.796875 L 19.503906 -59.847656 L 5.714844 3.949219 L 1.320312 2.996094 L -1.488281 -0.511719 C -0.589844 -1.234375 0.214844 -1.832031 0.921875 -2.300781 C 1.828125 -2.90625 2.738281 -3.371094 3.644531 -3.695312 C 4.511719 -4.003906 5.429688 -4.222656 6.398438 -4.34375 C 7.222656 -4.445312 8.167969 -4.496094 9.234375 -4.496094 L 13.070312 -4.496094 C 14.570312 -4.496094 15.6875 -4.792969 16.421875 -5.386719 C 17.164062 -5.988281 17.703125 -7.042969 18.039062 -8.554688 L 23.808594 -33.824219 L 29.128906 -20.226562 C 29.816406 -18.46875 30.5 -16.851562 31.183594 -15.375 C 31.84375 -13.941406 32.726562 -12.269531 33.828125 -10.359375 C 35.625 -7.382812 37.195312 -5.363281 38.535156 -4.296875 C 39.472656 -3.550781 40.699219 -3.175781 42.210938 -3.175781 C 43.488281 -3.175781 45.003906 -3.464844 46.746094 -4.035156 C 48.636719 -4.652344 50.363281 -5.421875 51.925781 -6.335938 C 53.472656 -7.246094 54.765625 -8.1875 55.800781 -9.15625 C 56.113281 -9.449219 56.316406 -9.675781 56.410156 -9.84375 C 56.335938 -9.714844 56.300781 -9.511719 56.300781 -9.234375 C 56.300781 -9.132812 56.324219 -8.996094 56.378906 -8.828125 C 56.5 -8.441406 56.714844 -8.085938 57.015625 -7.765625 C 57.34375 -7.417969 57.722656 -7.167969 58.152344 -7.015625 C 58.382812 -6.933594 58.582031 -6.894531 58.757812 -6.894531 C 58.792969 -6.894531 58.820312 -6.894531 58.847656 -6.898438 C 58.847656 -6.898438 58.839844 -6.894531 58.832031 -6.894531 C 58.773438 -6.890625 58.695312 -6.882812 58.59375 -6.871094 C 58.382812 -6.84375 58.132812 -6.800781 57.839844 -6.742188 L 56.957031 -11.152344 L 58.050781 -6.789062 C 57.371094 -6.621094 56.707031 -6.535156 56.058594 -6.535156 L 55.28125 -6.535156 C 50.84375 -6.535156 46.84375 -8.480469 43.277344 -12.371094 C 41.261719 -14.648438 39.445312 -17.125 37.824219 -19.792969 C 36.1875 -22.492188 34.875 -25.226562 33.894531 -27.996094 L 33.070312 -30.316406 L 34.582031 -32.257812 C 35.890625 -33.941406 37.199219 -35.339844 38.515625 -36.460938 C 39.898438 -37.636719 41.449219 -38.632812 43.171875 -39.441406 L 52.675781 -43.914062 L 49.351562 -33.953125 C 49.105469 -33.214844 48.984375 -32.769531 48.984375 -32.617188 C 48.984375 -32.421875 49.164062 -32.175781 49.523438 -31.875 C 50.128906 -31.371094 50.847656 -31.117188 51.683594 -31.117188 C 53.042969 -31.117188 54.199219 -31.613281 55.152344 -32.609375 C 56.15625 -33.660156 56.660156 -34.941406 56.660156 -36.453125 C 56.660156 -37.9375 56.101562 -39.195312 54.988281 -40.222656 C 53.769531 -41.347656 52.148438 -41.910156 50.125 -41.910156 C 47.753906 -41.910156 45.085938 -41.023438 42.117188 -39.25 C 38.796875 -37.261719 35.199219 -34.222656 31.328125 -30.125 Z M 20.09375 -18.246094 "/></g></g></g><g fill="#ed83b5" fill-opacity="1"><g transform="translate(0.336727, 103.467406)"><g><path d="M 68.59375 -70.03125 C 72.269531 -72.582031 76.1875 -74.5 80.34375 -75.78125 C 84.5 -77.0625 88.734375 -77.703125 93.046875 -77.703125 C 96.398438 -77.703125 99.535156 -77.300781 102.453125 -76.5 C 105.378906 -75.695312 107.898438 -74.578125 110.015625 -73.140625 C 112.128906 -71.703125 113.785156 -70.023438 114.984375 -68.109375 C 116.179688 -66.191406 116.78125 -64.113281 116.78125 -61.875 C 116.78125 -57.550781 115 -54.109375 111.4375 -51.546875 C 107.882812 -48.992188 103.15625 -47.71875 97.25 -47.71875 C 95.5625 -47.71875 94.078125 -47.773438 92.796875 -47.890625 C 91.523438 -48.015625 90.148438 -48.273438 88.671875 -48.671875 C 87.191406 -49.078125 85.492188 -49.660156 83.578125 -50.421875 C 81.660156 -51.179688 79.222656 -52.203125 76.265625 -53.484375 C 76.097656 -53.078125 76.015625 -52.734375 76.015625 -52.453125 C 76.015625 -52.179688 76.015625 -51.921875 76.015625 -51.671875 C 76.015625 -49.441406 77.695312 -47.085938 81.0625 -44.609375 C 81.300781 -44.441406 81.539062 -44.28125 81.78125 -44.125 C 82.019531 -43.96875 82.5 -43.664062 83.21875 -43.21875 C 83.9375 -42.78125 84.992188 -42.117188 86.390625 -41.234375 C 87.785156 -40.359375 89.804688 -39.164062 92.453125 -37.65625 C 97.085938 -34.851562 100.441406 -31.832031 102.515625 -28.59375 C 104.597656 -25.351562 105.640625 -21.578125 105.640625 -17.265625 C 105.640625 -12.628906 104.597656 -8.390625 102.515625 -4.546875 C 100.441406 -0.710938 97.484375 2.578125 93.640625 5.328125 C 89.804688 8.085938 85.226562 10.226562 79.90625 11.75 C 74.59375 13.269531 68.703125 14.03125 62.234375 14.03125 C 56.554688 14.03125 51.414062 13.410156 46.8125 12.171875 C 42.21875 10.929688 38.257812 9.191406 34.9375 6.953125 C 31.625 4.710938 29.066406 1.992188 27.265625 -1.203125 C 25.472656 -4.398438 24.578125 -7.914062 24.578125 -11.75 C 24.578125 -14.945312 25.253906 -17.941406 26.609375 -20.734375 C 27.972656 -23.535156 29.8125 -25.992188 32.125 -28.109375 C 34.445312 -30.234375 37.164062 -31.894531 40.28125 -33.09375 C 43.40625 -34.289062 46.765625 -34.890625 50.359375 -34.890625 C 52.679688 -34.890625 54.957031 -34.628906 57.1875 -34.109375 C 59.425781 -33.585938 61.40625 -32.90625 63.125 -32.0625 C 64.84375 -31.226562 66.242188 -30.269531 67.328125 -29.1875 C 68.410156 -28.113281 68.953125 -27.019531 68.953125 -25.90625 C 68.953125 -25.5 68.929688 -25.175781 68.890625 -24.9375 C 68.847656 -24.695312 68.707031 -24.457031 68.46875 -24.21875 C 68.226562 -23.976562 67.847656 -23.695312 67.328125 -23.375 C 66.804688 -23.0625 66.109375 -22.664062 65.234375 -22.1875 C 63.472656 -21.300781 62.59375 -19.820312 62.59375 -17.75 C 62.59375 -15.90625 63.390625 -14.34375 64.984375 -13.0625 C 66.585938 -11.789062 68.546875 -11.15625 70.859375 -11.15625 C 73.421875 -11.15625 75.582031 -11.894531 77.34375 -13.375 C 79.101562 -14.851562 79.984375 -16.671875 79.984375 -18.828125 C 79.984375 -19.785156 79.820312 -20.703125 79.5 -21.578125 C 79.175781 -22.460938 78.632812 -23.363281 77.875 -24.28125 C 77.113281 -25.195312 76.070312 -26.175781 74.75 -27.21875 C 73.4375 -28.257812 71.820312 -29.457031 69.90625 -30.8125 C 64.945312 -34.09375 61.425781 -37.191406 59.34375 -40.109375 C 57.269531 -43.023438 56.234375 -46.320312 56.234375 -50 C 56.234375 -51.601562 56.472656 -53.160156 56.953125 -54.671875 C 57.429688 -56.191406 58.3125 -58.234375 59.59375 -60.796875 C 57.507812 -61.671875 55.867188 -62.25 54.671875 -62.53125 C 53.472656 -62.8125 52.316406 -62.953125 51.203125 -62.953125 C 49.285156 -62.953125 47.664062 -62.367188 46.34375 -61.203125 C 45.019531 -60.046875 44.359375 -58.585938 44.359375 -56.828125 C 44.359375 -55.234375 44.898438 -53.9375 45.984375 -52.9375 C 47.066406 -51.9375 48.523438 -51.359375 50.359375 -51.203125 C 52.441406 -50.960938 53.484375 -50.160156 53.484375 -48.796875 C 53.484375 -47.835938 53.039062 -46.957031 52.15625 -46.15625 C 51.28125 -45.363281 50.101562 -44.644531 48.625 -44 C 47.144531 -43.363281 45.425781 -42.863281 43.46875 -42.5 C 41.507812 -42.144531 39.453125 -41.96875 37.296875 -41.96875 C 33.859375 -41.96875 30.738281 -42.425781 27.9375 -43.34375 C 25.132812 -44.257812 22.734375 -45.554688 20.734375 -47.234375 C 18.742188 -48.921875 17.1875 -50.921875 16.0625 -53.234375 C 14.945312 -55.554688 14.390625 -58.113281 14.390625 -60.90625 C 14.390625 -63.707031 14.988281 -66.328125 16.1875 -68.765625 C 17.382812 -71.203125 19 -73.316406 21.03125 -75.109375 C 23.070312 -76.910156 25.472656 -78.332031 28.234375 -79.375 C 30.992188 -80.414062 33.972656 -80.9375 37.171875 -80.9375 C 38.691406 -80.9375 40.128906 -80.851562 41.484375 -80.6875 C 42.847656 -80.53125 44.328125 -80.234375 45.921875 -79.796875 C 47.523438 -79.359375 49.304688 -78.757812 51.265625 -78 C 53.222656 -77.238281 55.519531 -76.257812 58.15625 -75.0625 C 59.507812 -74.5 60.644531 -74 61.5625 -73.5625 C 62.488281 -73.125 63.332031 -72.722656 64.09375 -72.359375 C 64.851562 -72.003906 65.570312 -71.644531 66.25 -71.28125 C 66.925781 -70.925781 67.707031 -70.507812 68.59375 -70.03125 Z M 84.296875 -61.984375 C 89.648438 -59.828125 93.367188 -58.75 95.453125 -58.75 C 96.328125 -58.75 97.101562 -59.03125 97.78125 -59.59375 C 98.457031 -60.15625 98.796875 -60.796875 98.796875 -61.515625 C 98.796875 -62.554688 98.175781 -63.394531 96.9375 -64.03125 C 95.695312 -64.664062 94.160156 -64.984375 92.328125 -64.984375 C 89.523438 -64.984375 86.847656 -63.984375 84.296875 -61.984375 Z M 84.296875 -61.984375 "/></g></g></g><g fill="#ed83b5" fill-opacity="1"><g transform="translate(110.281469, 103.467406)"><g><path d="M 36.6875 -45.4375 C 39.082031 -45.4375 40.28125 -44.320312 40.28125 -42.09375 C 40.28125 -40.8125 40.097656 -39.507812 39.734375 -38.1875 C 39.378906 -36.875 38.960938 -35.894531 38.484375 -35.25 C 37.609375 -34.289062 36.25 -33.8125 34.40625 -33.8125 L 28.0625 -33.8125 C 27.582031 -31.8125 27.117188 -29.875 26.671875 -28 C 26.234375 -26.125 25.875 -24.382812 25.59375 -22.78125 C 25.320312 -21.1875 25.082031 -19.804688 24.875 -18.640625 C 24.675781 -17.484375 24.578125 -16.664062 24.578125 -16.1875 C 24.578125 -14.664062 25.054688 -13.484375 26.015625 -12.640625 C 26.972656 -11.804688 28.289062 -11.390625 29.96875 -11.390625 C 30.613281 -11.390625 31.296875 -11.488281 32.015625 -11.6875 C 32.734375 -11.882812 33.648438 -12.1875 34.765625 -12.59375 C 35.804688 -13.070312 36.726562 -13.3125 37.53125 -13.3125 C 38.8125 -13.3125 39.453125 -12.628906 39.453125 -11.265625 C 39.453125 -9.191406 37.410156 -6.71875 33.328125 -3.84375 C 31.253906 -2.320312 28.878906 -1.140625 26.203125 -0.296875 C 23.523438 0.535156 20.90625 0.953125 18.34375 0.953125 C 14.1875 0.953125 10.75 -0.179688 8.03125 -2.453125 C 5.3125 -4.734375 3.953125 -7.59375 3.953125 -11.03125 C 3.953125 -11.832031 3.972656 -12.570312 4.015625 -13.25 C 4.054688 -13.925781 4.195312 -14.742188 4.4375 -15.703125 C 4.675781 -16.660156 5.035156 -17.898438 5.515625 -19.421875 C 5.992188 -20.941406 6.632812 -22.984375 7.4375 -25.546875 C 8.070312 -27.535156 8.53125 -29.050781 8.8125 -30.09375 C 9.09375 -31.132812 9.394531 -32.375 9.71875 -33.8125 C 6.914062 -34.132812 5.515625 -35.453125 5.515625 -37.765625 C 5.515625 -38.484375 5.632812 -39.160156 5.875 -39.796875 C 6.113281 -40.441406 6.59375 -41.179688 7.3125 -42.015625 C 8.03125 -42.859375 9.066406 -43.878906 10.421875 -45.078125 C 11.785156 -46.285156 13.585938 -47.804688 15.828125 -49.640625 C 19.828125 -52.992188 23.023438 -55.410156 25.421875 -56.890625 C 27.816406 -58.367188 29.695312 -59.109375 31.0625 -59.109375 C 31.851562 -59.109375 32.507812 -58.847656 33.03125 -58.328125 C 33.550781 -57.816406 33.8125 -57.160156 33.8125 -56.359375 C 33.8125 -56.191406 33.8125 -56.03125 33.8125 -55.875 C 33.8125 -55.71875 33.75 -55.4375 33.625 -55.03125 C 33.507812 -54.632812 33.332031 -54.035156 33.09375 -53.234375 C 32.851562 -52.441406 32.492188 -51.320312 32.015625 -49.875 C 31.617188 -48.519531 31.378906 -47.625 31.296875 -47.1875 C 31.210938 -46.75 31.09375 -46.164062 30.9375 -45.4375 Z M 36.6875 -45.4375 "/></g></g></g><g fill="#ed83b5" fill-opacity="1"><g transform="translate(148.768122, 103.467406)"><g><path d="M 52.765625 -19.1875 C 52.285156 -17.101562 52.046875 -15.703125 52.046875 -14.984375 C 52.046875 -14.109375 52.382812 -13.347656 53.0625 -12.703125 C 53.738281 -12.066406 54.597656 -11.75 55.640625 -11.75 C 56.515625 -11.75 57.3125 -11.910156 58.03125 -12.234375 C 59.707031 -12.710938 60.628906 -12.953125 60.796875 -12.953125 C 61.347656 -12.953125 61.820312 -12.75 62.21875 -12.34375 C 62.625 -11.945312 62.828125 -11.429688 62.828125 -10.796875 C 62.828125 -9.515625 62.164062 -8.171875 60.84375 -6.765625 C 59.53125 -5.367188 57.875 -4.070312 55.875 -2.875 C 53.875 -1.675781 51.691406 -0.679688 49.328125 0.109375 C 46.972656 0.910156 44.757812 1.3125 42.6875 1.3125 C 39.882812 1.3125 37.5625 0.394531 35.71875 -1.4375 C 33.882812 -3.28125 32.96875 -5.597656 32.96875 -8.390625 C 32.96875 -8.796875 32.96875 -9.21875 32.96875 -9.65625 C 32.96875 -10.09375 33.007812 -10.59375 33.09375 -11.15625 C 32.050781 -9.875 31.207031 -8.832031 30.5625 -8.03125 C 29.925781 -7.226562 29.367188 -6.546875 28.890625 -5.984375 C 28.410156 -5.429688 27.953125 -4.953125 27.515625 -4.546875 C 27.078125 -4.148438 26.617188 -3.710938 26.140625 -3.234375 C 24.617188 -1.710938 22.898438 -0.535156 20.984375 0.296875 C 19.066406 1.140625 17.269531 1.5625 15.59375 1.5625 C 11.988281 1.5625 9.046875 0.0820312 6.765625 -2.875 C 4.492188 -5.832031 3.359375 -9.628906 3.359375 -14.265625 C 3.359375 -18.265625 4.113281 -22.179688 5.625 -26.015625 C 7.144531 -29.859375 9.125 -33.273438 11.5625 -36.265625 C 14.007812 -39.265625 16.8125 -41.660156 19.96875 -43.453125 C 23.125 -45.253906 26.378906 -46.15625 29.734375 -46.15625 C 34.453125 -46.15625 38.332031 -44.441406 41.375 -41.015625 C 42.8125 -42.046875 44.046875 -42.878906 45.078125 -43.515625 C 46.117188 -44.160156 47.039062 -44.660156 47.84375 -45.015625 C 48.644531 -45.378906 49.382812 -45.617188 50.0625 -45.734375 C 50.738281 -45.859375 51.476562 -45.921875 52.28125 -45.921875 C 53.875 -45.921875 55.171875 -45.5 56.171875 -44.65625 C 57.171875 -43.820312 57.632812 -42.765625 57.5625 -41.484375 C 57.5625 -40.679688 57.4375 -39.882812 57.1875 -39.09375 Z M 32.734375 -33.6875 C 30.972656 -33.6875 29.429688 -32.90625 28.109375 -31.34375 C 26.796875 -29.789062 26.140625 -28.015625 26.140625 -26.015625 C 26.140625 -22.984375 27.457031 -21.46875 30.09375 -21.46875 C 30.894531 -21.46875 31.675781 -21.707031 32.4375 -22.1875 C 33.195312 -22.664062 33.875 -23.300781 34.46875 -24.09375 C 35.070312 -24.894531 35.550781 -25.796875 35.90625 -26.796875 C 36.269531 -27.796875 36.453125 -28.851562 36.453125 -29.96875 C 36.453125 -32.445312 35.210938 -33.6875 32.734375 -33.6875 Z M 32.734375 -33.6875 "/></g></g></g><g fill="#ed83b5" fill-opacity="1"><g transform="translate(210.51462, 103.467406)"><g><path d="M 33.578125 -37.890625 C 27.660156 -35.734375 24.703125 -31.65625 24.703125 -25.65625 C 24.703125 -22.300781 25.660156 -19.644531 27.578125 -17.6875 C 29.492188 -15.726562 32.09375 -14.75 35.375 -14.75 C 36.175781 -14.75 36.832031 -14.769531 37.34375 -14.8125 C 37.863281 -14.851562 38.421875 -14.953125 39.015625 -15.109375 C 39.617188 -15.265625 40.378906 -15.5625 41.296875 -16 C 42.222656 -16.445312 43.523438 -17.03125 45.203125 -17.75 C 45.765625 -17.988281 46.34375 -18.164062 46.9375 -18.28125 C 47.539062 -18.40625 48.082031 -18.46875 48.5625 -18.46875 C 50.5625 -18.46875 51.5625 -17.425781 51.5625 -15.34375 C 51.5625 -13.101562 49.519531 -10.226562 45.4375 -6.71875 C 38.8125 -1.039062 31.816406 1.796875 24.453125 1.796875 C 21.578125 1.796875 18.859375 1.273438 16.296875 0.234375 C 13.742188 -0.796875 11.507812 -2.226562 9.59375 -4.0625 C 7.675781 -5.90625 6.15625 -8.046875 5.03125 -10.484375 C 3.914062 -12.929688 3.359375 -15.550781 3.359375 -18.34375 C 3.359375 -22.101562 4.175781 -25.703125 5.8125 -29.140625 C 7.457031 -32.578125 9.65625 -35.59375 12.40625 -38.1875 C 15.164062 -40.789062 18.34375 -42.867188 21.9375 -44.421875 C 25.539062 -45.984375 29.335938 -46.765625 33.328125 -46.765625 C 38.128906 -46.765625 42.046875 -45.601562 45.078125 -43.28125 C 48.117188 -40.96875 49.640625 -38.007812 49.640625 -34.40625 C 49.640625 -31.613281 48.695312 -29.296875 46.8125 -27.453125 C 44.9375 -25.617188 42.601562 -24.703125 39.8125 -24.703125 C 37.488281 -24.703125 35.566406 -25.421875 34.046875 -26.859375 C 32.535156 -28.296875 31.78125 -30.175781 31.78125 -32.5 C 31.78125 -33.375 31.914062 -34.210938 32.1875 -35.015625 C 32.46875 -35.816406 32.929688 -36.773438 33.578125 -37.890625 Z M 33.578125 -37.890625 "/></g></g></g><g fill="#ed83b5" fill-opacity="1"><g transform="translate(261.230669, 103.467406)"><g><path d="M 28.0625 -33.21875 C 36.375 -42.007812 43.726562 -46.40625 50.125 -46.40625 C 53.320312 -46.40625 55.957031 -45.441406 58.03125 -43.515625 C 60.113281 -41.597656 61.15625 -39.242188 61.15625 -36.453125 C 61.15625 -33.734375 60.234375 -31.414062 58.390625 -29.5 C 56.554688 -27.582031 54.316406 -26.625 51.671875 -26.625 C 49.753906 -26.625 48.078125 -27.222656 46.640625 -28.421875 C 45.203125 -29.617188 44.484375 -31.015625 44.484375 -32.609375 C 44.484375 -33.253906 44.679688 -34.175781 45.078125 -35.375 C 43.722656 -34.726562 42.503906 -33.945312 41.421875 -33.03125 C 40.347656 -32.113281 39.25 -30.9375 38.125 -29.5 C 39.007812 -27.019531 40.191406 -24.5625 41.671875 -22.125 C 43.148438 -19.6875 44.804688 -17.425781 46.640625 -15.34375 C 49.273438 -12.46875 52.15625 -11.03125 55.28125 -11.03125 C 55.519531 -11.03125 55.773438 -11.03125 56.046875 -11.03125 C 56.328125 -11.03125 56.628906 -11.070312 56.953125 -11.15625 C 57.359375 -11.226562 57.71875 -11.285156 58.03125 -11.328125 C 58.351562 -11.367188 58.59375 -11.390625 58.75 -11.390625 C 60.113281 -11.390625 60.796875 -10.671875 60.796875 -9.234375 C 60.796875 -8.191406 60.15625 -7.070312 58.875 -5.875 C 57.59375 -4.675781 56.03125 -3.535156 54.1875 -2.453125 C 52.351562 -1.378906 50.335938 -0.484375 48.140625 0.234375 C 45.941406 0.953125 43.960938 1.3125 42.203125 1.3125 C 39.648438 1.3125 37.492188 0.613281 35.734375 -0.78125 C 33.972656 -2.175781 32.050781 -4.59375 29.96875 -8.03125 C 28.769531 -10.113281 27.8125 -11.929688 27.09375 -13.484375 C 26.375 -15.046875 25.65625 -16.742188 24.9375 -18.578125 L 22.421875 -7.546875 C 21.304688 -2.515625 18.1875 0 13.0625 0 L 9.234375 0 C 8.347656 0 7.585938 0.0351562 6.953125 0.109375 C 6.316406 0.191406 5.71875 0.332031 5.15625 0.53125 C 4.59375 0.738281 4.007812 1.039062 3.40625 1.4375 C 2.8125 1.832031 2.113281 2.351562 1.3125 3 L 15.109375 -60.796875 C 15.265625 -61.347656 15.363281 -61.90625 15.40625 -62.46875 C 15.445312 -63.03125 15.46875 -63.507812 15.46875 -63.90625 C 15.46875 -65.03125 15.285156 -65.867188 14.921875 -66.421875 C 14.566406 -66.984375 13.945312 -67.546875 13.0625 -68.109375 C 15.300781 -70.265625 17.800781 -71.960938 20.5625 -73.203125 C 23.320312 -74.441406 25.976562 -75.0625 28.53125 -75.0625 C 30.769531 -75.0625 32.550781 -74.476562 33.875 -73.3125 C 35.195312 -72.15625 35.859375 -70.660156 35.859375 -68.828125 C 35.859375 -68.347656 35.773438 -67.707031 35.609375 -66.90625 Z M 28.0625 -33.21875 "/></g></g></g></g></g></svg>