<?xml version="1.0" encoding="UTF-8"?>
<svg version="1.1" xmlns="http://www.w3.org/2000/svg" width="1002" height="420">
<path d="M0 0 C330.66 0 661.32 0 1002 0 C1002 138.6 1002 277.2 1002 420 C671.34 420 340.68 420 0 420 C0 281.4 0 142.8 0 0 Z " fill="#FEFEFE" transform="translate(0,0)"/>
<path d="M0 0 C5.93217182 4.17522243 10.2074812 9.57312746 12.4375 16.5 C12.72617792 19.12805842 12.94154038 21.67910831 13.0625 24.3125 C13.10117188 25.00537109 13.13984375 25.69824219 13.1796875 26.41210938 C13.27323568 28.10767015 13.35642364 29.80379712 13.4375 31.5 C14.18128906 30.695625 14.92507812 29.89125 15.69140625 29.0625 C18.87757886 26.0893432 20.29455415 25.62100154 24.45703125 25.37890625 C28.42019661 25.62122997 31.09339625 26.98990449 33.73632812 29.95922852 C38.65668989 36.46454854 42.72142882 43.45988098 46.8125 50.5 C47.18745605 51.14185242 47.56241211 51.78370483 47.94873047 52.44500732 C65.10407653 81.83464034 65.10407653 81.83464034 64.4375 91.5 C63.15169959 94.39305092 62.15320925 95.99900353 59.5625 97.8125 C57.08919514 98.61268687 55.02133294 98.64354627 52.4375 98.5 C52.19 99.428125 51.9425 100.35625 51.6875 101.3125 C50.33070322 104.77233179 49.74304809 105.89189552 46.4375 107.5 C43.01330109 108.09264981 40.63575471 108.14559029 37.5234375 106.46875 C32.78333274 103.06947169 28.81348405 98.92653413 24.7578125 94.7578125 C21.22805826 91.32313582 17.38246181 88.44306675 13.4375 85.5 C13.1075 91.44 12.7775 97.38 12.4375 103.5 C13.860625 103.83 15.28375 104.16 16.75 104.5 C29.19655282 107.9018428 41.75104218 113.24749392 52.4375 120.5 C52.355 119.46875 52.2725 118.4375 52.1875 117.375 C52.52614623 112.1259834 54.70275996 109.50162312 58.0625 105.625 C59.4375 104.5 59.4375 104.5 61.4375 104.5 C61.623125 103.79875 61.80875 103.0975 62 102.375 C65.55768249 95.25963503 73.04793104 91.89013926 79.66235352 88.03710938 C92.73269909 80.30275546 102.91914506 69.53919075 112.25 57.6875 C124.21114865 42.61317568 124.21114865 42.61317568 128.4375 40.5 C134.68009681 39.92198178 134.68009681 39.92198178 137.8125 42.3125 C140.20396082 45.53177418 140.56192833 48.07908504 140.55102539 51.97143555 C140.55094986 52.87214279 140.55087433 53.77285004 140.55079651 54.70085144 C140.54563522 55.66968765 140.54047394 56.63852386 140.53515625 57.63671875 C140.53303383 59.12858452 140.53303383 59.12858452 140.53086853 60.65058899 C140.52526761 63.82958982 140.51271496 67.00852043 140.5 70.1875 C140.49498512 72.34179586 140.49042219 74.49609282 140.48632812 76.65039062 C140.47529788 81.93361774 140.45855886 87.21680385 140.4375 92.5 C141.53215576 92.48428955 142.62681152 92.4685791 143.75463867 92.45239258 C147.82666631 92.3979789 151.89866197 92.36360844 155.97094727 92.33520508 C157.73141896 92.32014447 159.4918533 92.29969174 161.25219727 92.27368164 C163.78671503 92.23717771 166.32073552 92.22024646 168.85546875 92.20703125 C169.63899216 92.19154739 170.42251556 92.17606354 171.2297821 92.16011047 C175.81702386 92.15870657 178.80550607 92.61987564 182.4375 95.5 C185.26286994 101.15073988 183.30482773 108.79973639 181.4375 114.5 C179.9375 116.5 179.9375 116.5 178.4375 117.5 C177.7775 117.5 177.1175 117.5 176.4375 117.5 C176.355 118.4075 176.2725 119.315 176.1875 120.25 C175.30561573 124.07149849 174.53589199 125.15006057 171.4375 127.5 C168.13769531 127.95410156 168.13769531 127.95410156 164.265625 127.890625 C163.2419986 127.88213531 163.2419986 127.88213531 162.19769287 127.87347412 C160.02690238 127.85115636 157.85778794 127.80097508 155.6875 127.75 C154.2122635 127.72992876 152.73700101 127.71167907 151.26171875 127.6953125 C147.65310499 127.6513088 144.04546619 127.58231583 140.4375 127.5 C140.52223541 135.29813757 140.61724438 143.0960783 140.72502708 150.89392757 C140.77477058 154.51559122 140.8211006 158.13722875 140.859375 161.7590332 C140.89650755 165.26049983 140.94293914 168.76173556 140.99556351 172.2630024 C141.02285473 174.2352296 141.04075052 176.20757969 141.05844116 178.17991638 C141.21417832 187.7467799 141.47065473 197.76902469 148.0625 205.375 C153.08441215 207.75380049 158.65870453 207.11918107 163.8125 205.3125 C166.55776756 203.76997245 167.30771615 202.87223114 168.35546875 199.8671875 C168.80374968 197.65566826 169.21936861 195.43738017 169.609375 193.21484375 C172.51750169 180.16942638 180.31549291 166.11157086 191.4375 158.5 C212.57380101 145.5652959 234.57634352 146.6337643 258.4375 148.5 C254.37223089 140.83108575 250.81574015 135.60969641 242.609375 132.390625 C234.1014317 130.00169511 224.86951838 131.29853707 216.4375 133.5 C215.66277344 133.69464844 214.88804687 133.88929688 214.08984375 134.08984375 C207.68047737 135.85111679 201.74647137 138.497752 195.734375 141.29296875 C192.32738273 142.54031545 190.0289171 142.87697144 186.4375 142.5 C183.09988955 140.34909549 181.70279067 139.29587201 180.4375 135.5 C179.95068298 130.43710296 180.62415363 127.5315947 183.37890625 123.2421875 C184.63097912 121.30598662 184.63097912 121.30598662 185.6875 118.125 C190.71250649 106.20397396 203.19043761 99.53886121 214.46875 94.62890625 C237.22429868 85.97580945 265.87850939 84.78428308 288.6953125 93.78515625 C302.22064538 99.86986114 311.18446779 110.05204321 316.51416016 123.70483398 C318.09316784 128.48486016 318.76139334 133.33683157 319.4375 138.3125 C319.59919678 139.42181885 319.76089355 140.5311377 319.92749023 141.67407227 C320.82092608 147.86261317 321.64806211 154.05978127 322.47265625 160.2578125 C322.64474609 161.53938232 322.81683594 162.82095215 322.99414062 164.14135742 C323.32264776 166.60658788 323.64341155 169.07286712 323.95507812 171.5402832 C325.42568193 185.35837424 325.42568193 185.35837424 331.4375 197.5 C333.71069759 199.03580687 335.98276219 200.24947319 338.4375 201.5 C338.13070313 200.85546875 337.82390625 200.2109375 337.5078125 199.546875 C336.13222387 195.63096576 335.71580811 191.86615174 335.3125 187.75 C335.2297583 186.91162598 335.1470166 186.07325195 335.06176758 185.20947266 C333.36167333 166.65695388 333.85781881 148.44838662 342.4375 131.5 C342.92992187 130.51644531 343.42234375 129.53289062 343.9296875 128.51953125 C354.57826463 108.82730608 373.06016024 95.83085511 394.16601562 89.16430664 C416.93225047 82.68450277 440.30830457 86.09109541 460.90234375 97.39453125 C473.78209752 104.86030552 481.8377282 114.70473734 485.859375 129.05859375 C487.58085943 136.32837597 485.96503173 142.08892734 482.4375 148.5 C476.02130916 157.56727629 465.17784203 167.00527201 454.4375 170.5 C450.02539319 171.06154087 448.03743464 170.85765334 444.1875 168.5625 C439.10402487 163.77115937 438.19368294 155.7627661 436.70117188 149.20507812 C433.08446679 132.83103907 433.08446679 132.83103907 422.4375 120.5 C418.2240404 117.96546683 414.24958748 117.78277379 409.4375 118.5 C406.0542447 120.3646306 406.0542447 120.3646306 403.4375 122.5 C402.7775 122.5 402.1175 122.5 401.4375 122.5 C399.91775315 125.44408359 398.60777738 128.4250876 397.375 131.5 C397.03339844 132.345625 396.69179688 133.19125 396.33984375 134.0625 C391.77780951 146.38591716 393.17431608 162.20513763 397.890625 174.234375 C404.03939225 187.21510586 412.12380179 196.68567283 425.4375 202.5 C437.13976696 206.5106361 450.26829369 205.72951278 461.4375 200.5 C465.77359469 198.21649451 469.84323964 195.65374105 473.8125 192.78125 C478.62777696 189.33247055 481.45936286 187.62818833 487.4375 188.5 C487.7675 188.83 488.0975 189.16 488.4375 189.5 C488.60106105 174.07087962 488.72447996 158.64182413 488.8001852 143.2120409 C488.83627201 136.04755985 488.88546466 128.88361761 488.96557617 121.71948242 C489.03537307 115.47477267 489.08051337 109.23045311 489.09611946 102.98536414 C489.10524196 99.67867473 489.13033316 96.37336118 489.1776104 93.0669651 C489.22831615 89.37445092 489.23542788 85.68426051 489.23217773 81.99145508 C489.25734467 80.89669357 489.2825116 79.80193207 489.30844116 78.67399597 C489.40818244 73.26817687 489.40818244 73.26817687 486.86525154 68.75702477 C485.00648808 67.39012448 485.00648808 67.39012448 483.05067539 66.39727306 C480.89272804 65.19698943 480.45900572 63.68894083 479.4375 61.5 C477.78928756 60.46986723 476.12246298 59.46885372 474.4375 58.5 C471.74779601 54.46544402 471.65749859 51.23871824 472.4375 46.5 C478.60214874 37.66400347 491.70845117 33.43247587 501.25 29.4375 C503.02213867 28.68243164 503.02213867 28.68243164 504.83007812 27.91210938 C510.68713929 25.43128292 516.56893865 23.01220951 522.48046875 20.6640625 C523.49520264 20.26010254 524.50993652 19.85614258 525.55541992 19.43994141 C529.89070001 18.02606353 533.95582402 17.58196581 538.4375 18.5 C541.99430172 20.60504591 543.13218936 21.58406808 544.4375 25.5 C545.200625 25.78875 545.96375 26.0775 546.75 26.375 C550.13675368 27.79271084 551.41797549 29.47071324 553.4375 32.5 C554.37325189 35.4236041 554.5712707 38.09759039 554.59571838 41.15704346 C554.6055072 42.08809906 554.61529602 43.01915466 554.62538147 43.97842407 C554.63113693 44.99262421 554.6368924 46.00682434 554.64282227 47.05175781 C554.65272186 48.12523468 554.66262146 49.19871155 554.67282104 50.30471802 C554.70441722 53.85416455 554.72918616 57.40362447 554.75390625 60.953125 C554.77447739 63.4136388 554.79547391 65.87414908 554.81687927 68.33465576 C554.87208335 74.81190133 554.92150004 81.28917871 554.96972656 87.76647949 C555.01995368 94.37559847 555.07563344 100.98467124 555.13085938 107.59375 C555.23842062 120.56246026 555.3400553 133.53120998 555.4375 146.5 C556.11296875 145.89091797 556.7884375 145.28183594 557.484375 144.65429688 C558.37640625 143.85056641 559.2684375 143.04683594 560.1875 142.21875 C561.51007813 141.02668945 561.51007813 141.02668945 562.859375 139.81054688 C565.03864862 137.85745544 567.23063471 135.92175923 569.4375 134 C570.06914063 133.44570312 570.70078125 132.89140625 571.3515625 132.3203125 C572.92090675 130.95080984 574.50087409 129.59346575 576.0859375 128.2421875 C576.98570312 127.46101562 577.88546875 126.67984375 578.8125 125.875 C579.64523437 125.16085938 580.47796875 124.44671875 581.3359375 123.7109375 C583.56446701 121.36642504 584.545508 119.59121365 585.4375 116.5 C584.39672036 112.20678401 580.95251605 110.79552069 577.4375 108.5 C574.82292667 105.97257912 574.46916554 104.71770062 573.9375 101.0625 C574.56479092 96.59305221 575.94849476 95.25874833 579.4375 92.5 C582.7533221 91.39472597 585.24832747 91.35964839 588.74145508 91.33886719 C590.69412041 91.32445587 590.69412041 91.32445587 592.68623352 91.30975342 C594.10983098 91.30490503 595.53343048 91.3006263 596.95703125 91.296875 C598.41810609 91.29112078 599.87918092 91.28536308 601.34025574 91.27960205 C604.40433096 91.26909925 607.46838001 91.26325206 610.5324707 91.25976562 C614.44985101 91.25428635 618.36688279 91.23026774 622.28415394 91.20179367 C625.30312597 91.18312559 628.3220148 91.17795946 631.34103966 91.17642975 C632.78467397 91.17341143 634.22830711 91.16541064 635.67188454 91.15224457 C637.69630628 91.13510084 639.72087229 91.13892112 641.74536133 91.14355469 C643.47052727 91.13808624 643.47052727 91.13808624 645.23054504 91.13250732 C648.91210571 91.55438621 651.29102779 92.56424973 654.4375 94.5 C656.4375 97.5 656.4375 97.5 656.4375 100.5 C657.345 100.5825 658.2525 100.665 659.1875 100.75 C663.02624809 101.63586494 664.28979792 102.19584296 666.4375 105.5 C667.06400828 108.63254141 667.27714279 111.40740264 666.4375 114.5 C662.45089433 119.83453586 657.43679657 121.22422744 651.375 123.25 C642.31721963 126.48979694 635.72828628 130.14996034 628.4375 136.5 C627.38635213 137.36110983 626.33155407 138.21778021 625.2734375 139.0703125 C622.64415238 141.19370985 620.03458914 143.33746317 617.4375 145.5 C617.9964857 149.04809222 618.85165379 151.57527116 620.78125 154.59765625 C621.52507935 155.77871948 621.52507935 155.77871948 622.28393555 156.98364258 C622.82961182 157.83466553 623.37528809 158.68568848 623.9375 159.5625 C625.12249328 161.4418266 626.30600858 163.32208569 627.48828125 165.203125 C628.12459473 166.21310547 628.7609082 167.22308594 629.41650391 168.26367188 C632.67102115 173.47530278 635.84601086 178.73452995 639.0239563 183.99307251 C640.12256605 185.80847799 641.22456697 187.6217763 642.32788086 189.43432617 C645.40055919 194.48284502 648.4666856 199.53333482 651.4609375 204.62890625 C655.24431331 210.9953661 658.50568758 216.40317497 664.9609375 220.40234375 C666.4375 221.5 666.4375 221.5 667.125 224.25 C667.2796875 225.36375 667.2796875 225.36375 667.4375 226.5 C669.73284258 227.63545562 669.73284258 227.63545562 672.4375 228.5 C677.15178571 231.92857143 677.15178571 231.92857143 678.4375 234.5 C679.13903846 241.63230769 679.13903846 241.63230769 676.0625 245.4375 C671.98380575 248.64218834 669.16811759 248.65805353 664.14550781 248.67700195 C663.39407501 248.68357315 662.64264221 248.69014435 661.86843872 248.69691467 C659.37583317 248.71666223 656.88328795 248.72831443 654.390625 248.73828125 C653.53940819 248.74235678 652.68819138 248.7464323 651.81118011 248.75063133 C647.30446108 248.77149985 642.79777255 248.78579728 638.29101562 248.79516602 C633.63928598 248.80622272 628.98803571 248.84061161 624.33647537 248.88033772 C620.75733562 248.90650591 617.17830995 248.9148581 613.59908295 248.91844749 C611.88469969 248.92331418 610.17032155 248.93493055 608.4560318 248.95348549 C606.05266074 248.97787848 603.65052771 248.97691195 601.24707031 248.9699707 C600.19010452 248.98918579 600.19010452 248.98918579 599.11178589 249.00878906 C594.11939936 248.9563964 591.25148439 247.67989593 587.4375 244.5 C586.20066108 241.68900245 585.4375 239.56660382 585.4375 236.5 C584.695 236.4175 583.9525 236.335 583.1875 236.25 C579.72734065 235.30632018 578.48375315 234.455699 576.4375 231.5 C575.39108111 225.0122029 575.39108111 225.0122029 577.71875 221.6484375 C579.22385523 220.0916865 580.64989917 218.72260782 582.4375 217.5 C583.0975 217.5 583.7575 217.5 584.4375 217.5 C586.27139973 213.60296307 586.8625662 210.79566901 586.4375 206.5 C585.24019755 203.50857237 583.70481834 200.74198372 582.125 197.9375 C581.72087891 197.19564453 581.31675781 196.45378906 580.90039062 195.68945312 C579.21465346 192.61126966 577.48936515 189.58395601 575.64453125 186.59765625 C574.4375 184.5 574.4375 184.5 574.4375 182.5 C572.58383926 183.85439395 570.75574014 185.22720656 568.94921875 186.64453125 C566.4375 188.5 566.4375 188.5 563.45703125 190.19921875 C559.43787476 192.76253589 556.07486009 194.93187839 554.87109375 199.78222656 C554.54929869 202.46147593 554.4375 205.05173745 554.4375 207.75 C554.4375 208.6260791 554.4375 209.5021582 554.4375 210.40478516 C554.65901622 214.92077396 554.94390693 216.91799072 557.9453125 220.45703125 C558.76773438 221.13121094 559.59015625 221.80539062 560.4375 222.5 C560.72625 223.304375 561.015 224.10875 561.3125 224.9375 C562.79546641 228.31536793 565.01922866 229.91470927 567.87890625 232.16796875 C570.16688698 234.1233608 570.41607606 235.3071845 570.75 238.3125 C570.35897661 242.30093862 569.28664102 243.72786279 566.4375 246.5 C562.35671993 248.58302547 558.88584905 248.75794065 554.33984375 248.7746582 C553.644888 248.77976913 552.94993225 248.78488007 552.23391724 248.79014587 C549.94752275 248.80399249 547.6614313 248.80308914 545.375 248.80078125 C543.7798654 248.80467037 542.18473184 248.80900548 540.58959961 248.81376648 C537.2507796 248.82121767 533.91206537 248.82094503 530.57324219 248.81567383 C526.29932632 248.80987489 522.02584321 248.82682549 517.7519989 248.8500185 C514.45940632 248.86476367 511.16691785 248.86562659 507.8742981 248.86250877 C506.29866681 248.8630214 504.7230296 248.86824825 503.14743042 248.87832069 C500.94305412 248.89068595 498.73951952 248.88389417 496.53515625 248.87231445 C495.28226807 248.87294388 494.02937988 248.8735733 492.73852539 248.8742218 C489.14204305 248.46650543 487.29652039 247.68120297 484.4375 245.5 C482.14736347 242.0647952 482.25907027 240.514669 482.4375 236.5 C478.54422764 235.37007283 476.95876813 235.22272972 473.31640625 237.16015625 C472.20245744 237.94909846 471.09736795 238.75065313 470 239.5625 C448.90062629 254.05368862 422.09755179 256.83412511 397.140625 252.7734375 C393.12733229 251.96103183 389.31100316 250.82594665 385.4375 249.5 C384.36113281 249.13777344 383.28476562 248.77554688 382.17578125 248.40234375 C372.11454345 244.60200425 362.94339059 238.77522135 355.7421875 230.75 C354.49794905 229.26939618 354.49794905 229.26939618 352.4375 229.5 C351.90125 230.345625 351.365 231.19125 350.8125 232.0625 C345.03293376 240.9621944 336.24186335 245.20608762 326.4375 248.5 C313.22263413 251.06523867 298.40972161 251.53872013 286.98828125 243.8515625 C282.87406903 240.81724818 279.38244235 237.72535206 276.4375 233.5 C273.00322719 234.78180605 270.02566006 236.28288435 266.9375 238.25 C251.99963341 247.28785123 238.59457767 250.72116448 221.3125 250.875 C220.22815674 250.88901855 219.14381348 250.90303711 218.02661133 250.91748047 C203.15837337 250.82960273 190.50672755 246.66386471 179.6875 236.1875 C176.4375 232.82520325 176.4375 232.82520325 176.4375 230.5 C175.42042969 231.37011719 175.42042969 231.37011719 174.3828125 232.2578125 C156.58873716 247.19300593 139.38444215 252.45321139 116.4375 251.5 C101.59955004 250.12740276 90.94909565 243.65983493 80.9453125 232.8828125 C76.74529696 226.24548224 75.95896286 219.13330358 75.75 211.4375 C75.71583984 210.57189453 75.68167969 209.70628906 75.64648438 208.81445312 C75.56509886 206.71005613 75.49960231 204.6050543 75.4375 202.5 C74.71046875 203.66015625 74.71046875 203.66015625 73.96875 204.84375 C69.68114561 211.50602759 65.32457515 217.20278896 59.4375 222.5 C58.81230469 223.06976563 58.18710937 223.63953125 57.54296875 224.2265625 C55.53475711 226.0180018 53.49003669 227.75956638 51.4375 229.5 C50.60347656 230.23476563 49.76945313 230.96953125 48.91015625 231.7265625 C38.94169937 240.27912666 26.51071901 247.17126081 13.4375 249.5 C13.41171875 250.5621875 13.3859375 251.624375 13.359375 252.71875 C12.98973515 263.10673506 11.94068429 270.55545193 4.4375 278.5 C-3.70218342 284.69323739 -11.5872613 285.38084103 -21.5625 284.5 C-29.28233379 282.63270254 -34.71495073 276.14750517 -38.73046875 269.59375 C-41.44879453 263.57004217 -40.82861146 256.96552298 -40.5625 250.5 C-55.92990927 246.11472559 -55.92990927 246.11472559 -71.5625 246.5 C-74.39441141 248.35831562 -76.78559618 250.41842082 -79.28515625 252.69921875 C-81.65619856 254.57409097 -82.83299475 255.16042695 -85.8125 255.3125 C-91.50911362 254.07823372 -94.50607064 251.1146168 -97.60620117 246.37646484 C-98.20408447 245.20809082 -98.80196777 244.0397168 -99.41796875 242.8359375 C-99.91722115 241.86483536 -99.91722115 241.86483536 -100.42655945 240.87411499 C-104.15004798 233.52926615 -107.52169306 226.01772431 -110.8371582 218.48193359 C-111.88465395 216.10307592 -112.94270002 213.72911108 -114.00195312 211.35546875 C-114.68551787 209.81277547 -115.36848251 208.26981612 -116.05078125 206.7265625 C-116.36018143 206.03261383 -116.6695816 205.33866516 -116.98835754 204.62368774 C-121.04870045 195.35666007 -124.09631219 186.78068714 -122.5625 176.5 C-121.13134323 173.99675805 -119.99531998 173.16143803 -117.5625 171.5 C-117.2325 171.17 -116.9025 170.84 -116.5625 170.5 C-115.04321962 170.42820036 -113.52082518 170.41607993 -112 170.4375 C-111.17371094 170.44652344 -110.34742187 170.45554688 -109.49609375 170.46484375 C-108.85800781 170.47644531 -108.21992187 170.48804688 -107.5625 170.5 C-107.500625 169.5925 -107.43875 168.685 -107.375 167.75 C-106.5625 164.5 -106.5625 164.5 -104.4375 162.125 C-100.76740591 160.05059899 -98.72744465 159.91544636 -94.5625 160.5 C-88.44569015 163.83890952 -84.04331637 168.96197211 -79.25 173.9375 C-72.96548261 180.33466385 -66.63760665 186.43389648 -59.5 191.875 C-58.85957764 192.36669678 -58.21915527 192.85839355 -57.55932617 193.36499023 C-52.10173594 197.39582343 -46.65516578 200.17672776 -40.5625 203.5 C-40.8925 191.29 -41.2225 179.08 -41.5625 166.5 C-44.594375 165.55125 -47.62625 164.6025 -50.75 163.625 C-66.47707691 158.48701604 -81.65126026 151.99359724 -94.5625 141.5 C-96.0475 140.51 -96.0475 140.51 -97.5625 139.5 C-97.5625 138.84 -97.5625 138.18 -97.5625 137.5 C-98.44615234 137.12875 -98.44615234 137.12875 -99.34765625 136.75 C-106.3921614 132.77426517 -110.50346555 123.67136282 -113.5625 116.5 C-113.88347656 115.778125 -114.20445313 115.05625 -114.53515625 114.3125 C-119.68578234 100.51361336 -117.0832871 84.65459472 -111.27734375 71.61328125 C-103.2234395 55.52790703 -89.12434104 46.43842903 -73.5625 38.5 C-72.37886636 37.882889 -71.19527481 37.26569728 -70.01171875 36.6484375 C-62.13001334 32.59427946 -55.08279241 29.47889612 -46.125 28.875 C-45.07441406 28.80023438 -44.02382812 28.72546875 -42.94140625 28.6484375 C-41.76384766 28.57496094 -41.76384766 28.57496094 -40.5625 28.5 C-40.62050781 27.82195312 -40.67851562 27.14390625 -40.73828125 26.4453125 C-41.10073186 18.96847413 -39.94443993 13.63674457 -35.5625 7.5 C-26.47129688 -2.47692696 -12.60535711 -7.03910685 0 0 Z " fill="#D82E8A" transform="translate(224.5625,68.5)"/>
<path d="M0 0 C5.93217182 4.17522243 10.2074812 9.57312746 12.4375 16.5 C12.72617792 19.12805842 12.94154038 21.67910831 13.0625 24.3125 C13.10117188 25.00537109 13.13984375 25.69824219 13.1796875 26.41210938 C13.27323568 28.10767015 13.35642364 29.80379712 13.4375 31.5 C14.18128906 30.695625 14.92507812 29.89125 15.69140625 29.0625 C18.87757886 26.0893432 20.29455415 25.62100154 24.45703125 25.37890625 C28.42019661 25.62122997 31.09339625 26.98990449 33.73632812 29.95922852 C38.65668989 36.46454854 42.72142882 43.45988098 46.8125 50.5 C47.18745605 51.14185242 47.56241211 51.78370483 47.94873047 52.44500732 C65.10407653 81.83464034 65.10407653 81.83464034 64.4375 91.5 C63.15169959 94.39305092 62.15320925 95.99900353 59.5625 97.8125 C57.08919514 98.61268687 55.02133294 98.64354627 52.4375 98.5 C52.19 99.428125 51.9425 100.35625 51.6875 101.3125 C50.33070322 104.77233179 49.74304809 105.89189552 46.4375 107.5 C43.01330109 108.09264981 40.63575471 108.14559029 37.5234375 106.46875 C32.78333274 103.06947169 28.81348405 98.92653413 24.7578125 94.7578125 C21.22805826 91.32313582 17.38246181 88.44306675 13.4375 85.5 C13.1075 91.44 12.7775 97.38 12.4375 103.5 C13.860625 103.83 15.28375 104.16 16.75 104.5 C29.19655282 107.9018428 41.75104218 113.24749392 52.4375 120.5 C52.355 119.46875 52.2725 118.4375 52.1875 117.375 C52.4806259 112.83154849 53.54210483 110.95838867 56.4375 107.5 C58.578125 106.33203125 58.578125 106.33203125 60.4375 105.5 C60.59605469 106.11488281 60.75460937 106.72976562 60.91796875 107.36328125 C61.15128906 108.17152344 61.38460937 108.97976562 61.625 109.8125 C61.84542969 110.61300781 62.06585938 111.41351563 62.29296875 112.23828125 C63.86391847 115.34264946 65.28253293 116.01572024 68.4375 117.5 C71.37019386 117.9870648 74.28152706 118.10041152 77.25 118.1875 C78.03826172 118.22166016 78.82652344 118.25582031 79.63867188 118.29101562 C81.57113119 118.37299875 83.50429035 118.43818845 85.4375 118.5 C85.42861755 119.65765366 85.41973511 120.81530731 85.4105835 122.00804138 C85.32935507 132.93927842 85.26946614 143.87045389 85.23025131 154.80192471 C85.20941251 160.4213822 85.18116238 166.04059527 85.13574219 171.65991211 C85.09215257 177.08696444 85.06833502 182.51378223 85.05799103 187.94099617 C85.05062321 190.00737256 85.03623566 192.0737367 85.01457977 194.14001274 C84.98537163 197.04340831 84.98155128 199.94584544 84.98339844 202.84936523 C84.96182678 204.11928314 84.96182678 204.11928314 84.93981934 205.41485596 C84.99499777 213.4759104 87.86817462 220.74492644 93.33984375 226.734375 C107.19315542 238.3948906 123.93813584 240.65997211 141.4375 239.5 C154.59192048 237.55062847 168.22176281 231.911817 177.59375 222.28515625 C179.4375 220.5 179.4375 220.5 181.4375 220.5 C182.48247358 221.66965793 183.473596 222.88768092 184.4375 224.125 C192.40124329 233.46009327 203.48334828 237.4525622 215.4375 238.5 C228.67116837 239.23646704 240.87206955 239.06244796 253.4375 234.5 C254.4790625 234.13777344 255.520625 233.77554688 256.59375 233.40234375 C263.3985079 230.81548347 269.07055571 227.26470035 274.94140625 222.9765625 C275.76511719 222.48929688 276.58882813 222.00203125 277.4375 221.5 C280.70013979 222.5875466 281.05938044 223.06331893 283 225.6875 C287.94844936 231.68487255 294.96306118 235.5411193 302.4375 237.5 C305.35997437 237.77264547 308.25408814 237.78565337 311.1875 237.75 C311.98736328 237.74323242 312.78722656 237.73646484 313.61132812 237.72949219 C327.3784236 237.48904332 339.12099447 233.91302337 349.4375 224.5 C351.90395431 221.77975293 351.90395431 221.77975293 353.4375 219.5 C356.71821699 220.96222002 359.10845828 222.83876752 361.8125 225.1875 C381.2163292 240.86420072 405.76393486 243.35466225 429.79980469 241.29785156 C446.24068209 239.30022088 460.79443345 232.5953777 474.4375 223.5 C475.0975 227.46 475.7575 231.42 476.4375 235.5 C452.61963351 252.01469942 426.06558071 257.47975452 397.140625 252.7734375 C393.12733229 251.96103183 389.31100316 250.82594665 385.4375 249.5 C384.36113281 249.13777344 383.28476562 248.77554688 382.17578125 248.40234375 C372.11454345 244.60200425 362.94339059 238.77522135 355.7421875 230.75 C354.49794905 229.26939618 354.49794905 229.26939618 352.4375 229.5 C351.90125 230.345625 351.365 231.19125 350.8125 232.0625 C345.03293376 240.9621944 336.24186335 245.20608762 326.4375 248.5 C313.22263413 251.06523867 298.40972161 251.53872013 286.98828125 243.8515625 C282.87406903 240.81724818 279.38244235 237.72535206 276.4375 233.5 C273.00322719 234.78180605 270.02566006 236.28288435 266.9375 238.25 C251.99963341 247.28785123 238.59457767 250.72116448 221.3125 250.875 C220.22815674 250.88901855 219.14381348 250.90303711 218.02661133 250.91748047 C203.15837337 250.82960273 190.50672755 246.66386471 179.6875 236.1875 C176.4375 232.82520325 176.4375 232.82520325 176.4375 230.5 C175.42042969 231.37011719 175.42042969 231.37011719 174.3828125 232.2578125 C156.58873716 247.19300593 139.38444215 252.45321139 116.4375 251.5 C101.59955004 250.12740276 90.94909565 243.65983493 80.9453125 232.8828125 C76.74529696 226.24548224 75.95896286 219.13330358 75.75 211.4375 C75.71583984 210.57189453 75.68167969 209.70628906 75.64648438 208.81445312 C75.56509886 206.71005613 75.49960231 204.6050543 75.4375 202.5 C74.71046875 203.66015625 74.71046875 203.66015625 73.96875 204.84375 C69.68114561 211.50602759 65.32457515 217.20278896 59.4375 222.5 C58.81230469 223.06976563 58.18710937 223.63953125 57.54296875 224.2265625 C55.53475711 226.0180018 53.49003669 227.75956638 51.4375 229.5 C50.60347656 230.23476563 49.76945313 230.96953125 48.91015625 231.7265625 C38.94169937 240.27912666 26.51071901 247.17126081 13.4375 249.5 C13.41171875 250.5621875 13.3859375 251.624375 13.359375 252.71875 C12.98973515 263.10673506 11.94068429 270.55545193 4.4375 278.5 C-3.70218342 284.69323739 -11.5872613 285.38084103 -21.5625 284.5 C-29.28233379 282.63270254 -34.71495073 276.14750517 -38.73046875 269.59375 C-41.44879453 263.57004217 -40.82861146 256.96552298 -40.5625 250.5 C-55.92990927 246.11472559 -55.92990927 246.11472559 -71.5625 246.5 C-74.39441141 248.35831562 -76.78559618 250.41842082 -79.28515625 252.69921875 C-81.65619856 254.57409097 -82.83299475 255.16042695 -85.8125 255.3125 C-91.50911362 254.07823372 -94.50607064 251.1146168 -97.60620117 246.37646484 C-98.20408447 245.20809082 -98.80196777 244.0397168 -99.41796875 242.8359375 C-99.91722115 241.86483536 -99.91722115 241.86483536 -100.42655945 240.87411499 C-104.15004798 233.52926615 -107.52169306 226.01772431 -110.8371582 218.48193359 C-111.88465395 216.10307592 -112.94270002 213.72911108 -114.00195312 211.35546875 C-114.68551787 209.81277547 -115.36848251 208.26981612 -116.05078125 206.7265625 C-116.36018143 206.03261383 -116.6695816 205.33866516 -116.98835754 204.62368774 C-121.04870045 195.35666007 -124.09631219 186.78068714 -122.5625 176.5 C-121.13134323 173.99675805 -119.99531998 173.16143803 -117.5625 171.5 C-117.2325 171.17 -116.9025 170.84 -116.5625 170.5 C-115.04321962 170.42820036 -113.52082518 170.41607993 -112 170.4375 C-111.17371094 170.44652344 -110.34742187 170.45554688 -109.49609375 170.46484375 C-108.85800781 170.47644531 -108.21992187 170.48804688 -107.5625 170.5 C-107.500625 169.5925 -107.43875 168.685 -107.375 167.75 C-106.5625 164.5 -106.5625 164.5 -104.4375 162.125 C-100.76740591 160.05059899 -98.72744465 159.91544636 -94.5625 160.5 C-88.44569015 163.83890952 -84.04331637 168.96197211 -79.25 173.9375 C-72.96548261 180.33466385 -66.63760665 186.43389648 -59.5 191.875 C-58.85957764 192.36669678 -58.21915527 192.85839355 -57.55932617 193.36499023 C-52.10173594 197.39582343 -46.65516578 200.17672776 -40.5625 203.5 C-40.8925 191.29 -41.2225 179.08 -41.5625 166.5 C-44.594375 165.55125 -47.62625 164.6025 -50.75 163.625 C-66.47707691 158.48701604 -81.65126026 151.99359724 -94.5625 141.5 C-96.0475 140.51 -96.0475 140.51 -97.5625 139.5 C-97.5625 138.84 -97.5625 138.18 -97.5625 137.5 C-98.44615234 137.12875 -98.44615234 137.12875 -99.34765625 136.75 C-106.3921614 132.77426517 -110.50346555 123.67136282 -113.5625 116.5 C-113.88347656 115.778125 -114.20445313 115.05625 -114.53515625 114.3125 C-119.68578234 100.51361336 -117.0832871 84.65459472 -111.27734375 71.61328125 C-103.2234395 55.52790703 -89.12434104 46.43842903 -73.5625 38.5 C-72.37886636 37.882889 -71.19527481 37.26569728 -70.01171875 36.6484375 C-62.13001334 32.59427946 -55.08279241 29.47889612 -46.125 28.875 C-45.07441406 28.80023438 -44.02382812 28.72546875 -42.94140625 28.6484375 C-41.76384766 28.57496094 -41.76384766 28.57496094 -40.5625 28.5 C-40.62050781 27.82195312 -40.67851562 27.14390625 -40.73828125 26.4453125 C-41.10073186 18.96847413 -39.94443993 13.63674457 -35.5625 7.5 C-26.47129688 -2.47692696 -12.60535711 -7.03910685 0 0 Z " fill="#D82D8A" transform="translate(224.5625,68.5)"/>
<path d="M0 0 C0.66 0 1.32 0 2 0 C2.15855469 0.61488281 2.31710937 1.22976562 2.48046875 1.86328125 C2.71378906 2.67152344 2.94710938 3.47976562 3.1875 4.3125 C3.40792969 5.11300781 3.62835938 5.91351563 3.85546875 6.73828125 C5.42641847 9.84264946 6.84503293 10.51572024 10 12 C12.93269386 12.4870648 15.84402706 12.60041152 18.8125 12.6875 C19.60076172 12.72166016 20.38902344 12.75582031 21.20117188 12.79101562 C23.13363119 12.87299875 25.06679035 12.93818845 27 13 C26.98667633 14.73648048 26.98667633 14.73648048 26.9730835 16.50804138 C26.89185507 27.43927842 26.83196614 38.37045389 26.79275131 49.30192471 C26.77191251 54.9213822 26.74366238 60.54059527 26.69824219 66.15991211 C26.65465257 71.58696444 26.63083502 77.01378223 26.62049103 82.44099617 C26.61312321 84.50737256 26.59873566 86.5737367 26.57707977 88.64001274 C26.54787163 91.54340831 26.54405128 94.44584544 26.54589844 97.34936523 C26.52432678 98.61928314 26.52432678 98.61928314 26.50231934 99.91485596 C26.55749777 107.9759104 29.43067462 115.24492644 34.90234375 121.234375 C48.75565542 132.8948906 65.50063584 135.15997211 83 134 C96.15442048 132.05062847 109.78426281 126.411817 119.15625 116.78515625 C121 115 121 115 123 115 C124.04497358 116.16965793 125.036096 117.38768092 126 118.625 C133.96374329 127.96009327 145.04584828 131.9525622 157 133 C170.23366837 133.73646704 182.43456955 133.56244796 195 129 C196.0415625 128.63777344 197.083125 128.27554688 198.15625 127.90234375 C204.9610079 125.31548347 210.63305571 121.76470035 216.50390625 117.4765625 C217.73947266 116.74566406 217.73947266 116.74566406 219 116 C222.26263979 117.0875466 222.62188044 117.56331893 224.5625 120.1875 C229.51094936 126.18487255 236.52556118 130.0411193 244 132 C246.92247437 132.27264547 249.81658814 132.28565337 252.75 132.25 C253.54986328 132.24323242 254.34972656 132.23646484 255.17382812 132.22949219 C268.9409236 131.98904332 280.68349447 128.41302337 291 119 C293.46645431 116.27975293 293.46645431 116.27975293 295 114 C298.28071699 115.46222002 300.67095828 117.33876752 303.375 119.6875 C322.7788292 135.36420072 347.32643486 137.85466225 371.36230469 135.79785156 C387.80318209 133.80022088 402.35693345 127.0953777 416 118 C416.66 121.96 417.32 125.92 418 130 C394.18213351 146.51469942 367.62808071 151.97975452 338.703125 147.2734375 C334.68983229 146.46103183 330.87350316 145.32594665 327 144 C325.92363281 143.63777344 324.84726562 143.27554688 323.73828125 142.90234375 C313.67704345 139.10200425 304.50589059 133.27522135 297.3046875 125.25 C296.06044905 123.76939618 296.06044905 123.76939618 294 124 C293.46375 124.845625 292.9275 125.69125 292.375 126.5625 C286.59543376 135.4621944 277.80436335 139.70608762 268 143 C254.78513413 145.56523867 239.97222161 146.03872013 228.55078125 138.3515625 C224.43656903 135.31724818 220.94494235 132.22535206 218 128 C214.56572719 129.28180605 211.58816006 130.78288435 208.5 132.75 C193.56213341 141.78785123 180.15707767 145.22116448 162.875 145.375 C161.79065674 145.38901855 160.70631348 145.40303711 159.58911133 145.41748047 C144.72087337 145.32960273 132.06922755 141.16386471 121.25 130.6875 C118 127.32520325 118 127.32520325 118 125 C117.32195312 125.58007812 116.64390625 126.16015625 115.9453125 126.7578125 C98.15123716 141.69300593 80.94694215 146.95321139 58 146 C43.16205004 144.62740276 32.51159565 138.15983493 22.5078125 127.3828125 C17.8699018 120.05347176 17.52943666 112.47328308 17.625 104 C17.61339844 102.97132813 17.60179687 101.94265625 17.58984375 100.8828125 C17.61192329 95.09797386 18.24955975 90.3564242 20.27978516 84.94067383 C22.43887851 79.12283212 22.21500361 72.93249434 22.25 66.8125 C22.270625 65.93013672 22.29125 65.04777344 22.3125 64.13867188 C22.34059949 59.31609735 21.90107265 55.21001869 20.49609375 50.5859375 C18.70259493 44.59892587 18.6571576 39.0222127 18.8125 32.8125 C18.83280273 31.24145508 18.83280273 31.24145508 18.85351562 29.63867188 C18.8884032 27.09187876 18.9374113 24.54623675 19 22 C17.9378125 22.06960937 16.875625 22.13921875 15.78125 22.2109375 C2.13795095 22.83321251 2.13795095 22.83321251 -3.71484375 17.5078125 C-5.55461824 15.34929288 -5.98821637 14.10369596 -6.3125 11.25 C-5.84448782 6.38267335 -3.39156673 3.39156673 0 0 Z " fill="#63A957" transform="translate(283,174)"/>
<path d="M0 0 C0.66 0.33 1.32 0.66 2 1 C1.030625 1.70125 0.06125 2.4025 -0.9375 3.125 C-9.81650864 10.77682858 -17.30656657 23.71394109 -18.18212891 35.43896484 C-18.93858387 52.63819799 -16.38742674 67.7066165 -4.9375 81.25 C14.36421908 101.0707569 41.78857292 108.7697468 67.71484375 115.82421875 C99.26556449 124.43677084 99.26556449 124.43677084 108 137 C109.90948276 142.72844829 109.91185715 148.77562505 107.375 154.3125 C103.68582805 160.77832787 97.42931283 164.99701818 90.3671875 167.0625 C86.04585418 168.0999143 81.93199477 168.34580854 77.5 168.3125 C76.33694336 168.30621582 76.33694336 168.30621582 75.15039062 168.29980469 C63.21356025 168.07155773 53.17062891 165.46825157 42 161 C41.67 148.46 41.34 135.92 41 123 C37.968125 122.05125 34.93625 121.1025 31.8125 120.125 C16.08542309 114.98701604 0.91123974 108.49359724 -12 98 C-13.485 97.01 -13.485 97.01 -15 96 C-15 95.34 -15 94.68 -15 94 C-15.88365234 93.62875 -15.88365234 93.62875 -16.78515625 93.25 C-23.8296614 89.27426517 -27.94096555 80.17136282 -31 73 C-31.32097656 72.278125 -31.64195313 71.55625 -31.97265625 70.8125 C-37.12328234 57.01361336 -34.5207871 41.15459472 -28.71484375 28.11328125 C-22.52262112 15.74608452 -12.34705192 6.17352596 0 0 Z " fill="#DD69A0" transform="translate(142,112)"/>
<path d="M0 0 C0.91265625 -0.01224609 1.8253125 -0.02449219 2.765625 -0.03710938 C11.77611509 -0.05636256 19.48013046 1.64460933 27.6875 5.3125 C28.37690674 5.61961914 29.06631348 5.92673828 29.77661133 6.24316406 C43.5200523 12.55810553 55.33802355 22.37910567 65.8125 33.1875 C68.979029 36.45334818 71.63296778 38.55594914 75.875 40.1875 C75.62124791 43.90919726 75.27126084 45.74462024 72.75 48.5625 C68.98970706 50.68788297 67.1477445 50.91169398 62.875 50.1875 C57.11378114 47.06536708 52.71608932 42.092104 48.1953125 37.4453125 C44.66555826 34.01063582 40.81996181 31.13056675 36.875 28.1875 C36.545 34.1275 36.215 40.0675 35.875 46.1875 C23.20893619 42.8985221 10.56325062 39.58019544 -1.875 35.5 C-2.72408936 35.22728271 -3.57317871 34.95456543 -4.44799805 34.67358398 C-11.60280177 32.26933233 -17.03412903 28.8601848 -22.125 23.1875 C-23.91483568 17.81799295 -24.00931724 12.99014667 -21.5 7.875 C-15.06157483 0.58941363 -9.09571338 0.00626427 0 0 Z " fill="#DD69A0" transform="translate(201.125,125.8125)"/>
<path d="M0 0 C2.05078125 0.03255208 4.1015625 0.06510417 6.15234375 0.09765625 C6.26046387 0.72091797 6.36858398 1.34417969 6.47998047 1.98632812 C7.55617157 7.80679258 9.03270929 13.12710678 11.27734375 18.59765625 C11.60573242 19.4086377 11.93412109 20.21961914 12.27246094 21.05517578 C16.04267652 30.14930327 20.22635014 39.05978154 24.40234375 47.97265625 C24.75395569 48.72571045 25.10556763 49.47876465 25.46783447 50.25463867 C26.48690844 52.43174855 27.51348481 54.60513991 28.54296875 56.77734375 C28.84695587 57.42665863 29.15094299 58.07597351 29.46414185 58.7449646 C32.75668714 65.92613412 32.75668714 65.92613412 38.13671875 71.46875 C41.95218689 72.65923522 45.37104908 72.32027486 49.15234375 71.09765625 C51.10743413 69.47793237 51.10743413 69.47793237 52.90234375 67.53515625 C56.42420335 64.09093284 58.80792578 63.5800195 63.71484375 63.53515625 C68.50751602 63.71700795 72.60653521 64.68174867 77.15234375 66.09765625 C77.178125 67.34160156 77.20390625 68.58554687 77.23046875 69.8671875 C77.58590643 81.61552475 78.28393955 92.65557121 86.15234375 102.09765625 C91.70185922 106.86738032 96.45850748 108.53770673 103.77734375 108.44140625 C109.30461254 107.64140682 113.06986695 104.18013305 116.90234375 100.34765625 C123.501991 90.81483244 124.22530244 81.40512059 125.15234375 70.09765625 C126.98732422 69.80375 126.98732422 69.80375 128.859375 69.50390625 C140.86262787 67.42515073 151.38228438 63.9868738 162.38500977 58.76855469 C164.15234375 58.09765625 164.15234375 58.09765625 167.15234375 58.09765625 C156.98632035 67.98756543 142.42631042 76.8255829 128.15234375 79.09765625 C128.11367188 80.6909375 128.11367188 80.6909375 128.07421875 82.31640625 C127.7045789 92.70439131 126.65552804 100.15310818 119.15234375 108.09765625 C111.01266033 114.29089364 103.12758245 114.97849728 93.15234375 114.09765625 C85.43250996 112.23035879 79.99989302 105.74516142 75.984375 99.19140625 C73.26604922 93.16769842 73.88623229 86.56317923 74.15234375 80.09765625 C58.78493448 75.71238184 58.78493448 75.71238184 43.15234375 76.09765625 C40.32043234 77.95597187 37.92924757 80.01607707 35.4296875 82.296875 C33.05864519 84.17174722 31.881849 84.7580832 28.90234375 84.91015625 C23.20573013 83.67588997 20.20877311 80.71227305 17.10864258 75.97412109 C16.51075928 74.80574707 15.91287598 73.63737305 15.296875 72.43359375 C14.96404007 71.78619232 14.63120514 71.13879089 14.2882843 70.47177124 C10.56479577 63.1269224 7.19315069 55.61538056 3.87768555 48.07958984 C2.8301898 45.70073217 1.77214373 43.32676733 0.71289062 40.953125 C0.02932588 39.41043172 -0.65363876 37.86747237 -1.3359375 36.32421875 C-1.64533768 35.63027008 -1.95473785 34.93632141 -2.27351379 34.22134399 C-6.3338567 24.95431632 -9.38146844 16.37834339 -7.84765625 6.09765625 C-6.41649948 3.5944143 -5.28047623 2.75909428 -2.84765625 1.09765625 C-1.84765625 0.09765625 -1.84765625 0.09765625 0 0 Z " fill="#62AA56" transform="translate(109.84765625,238.90234375)"/>
<path d="M0 0 C0.66 0.33 1.32 0.66 2 1 C1.030625 1.70125 0.06125 2.4025 -0.9375 3.125 C-9.81650864 10.77682858 -17.30656657 23.71394109 -18.18212891 35.43896484 C-18.93858387 52.63819799 -16.38742674 67.7066165 -4.9375 81.25 C8.87761868 95.43661767 26.49370186 102.83123395 45 109 C45 126.16 45 143.32 45 161 C44.01 161 43.02 161 42 161 C41.67 148.46 41.34 135.92 41 123 C37.968125 122.05125 34.93625 121.1025 31.8125 120.125 C16.08542309 114.98701604 0.91123974 108.49359724 -12 98 C-13.485 97.01 -13.485 97.01 -15 96 C-15 95.34 -15 94.68 -15 94 C-15.88365234 93.62875 -15.88365234 93.62875 -16.78515625 93.25 C-23.8296614 89.27426517 -27.94096555 80.17136282 -31 73 C-31.32097656 72.278125 -31.64195313 71.55625 -31.97265625 70.8125 C-37.12328234 57.01361336 -34.5207871 41.15459472 -28.71484375 28.11328125 C-22.52262112 15.74608452 -12.34705192 6.17352596 0 0 Z " fill="#63AA57" transform="translate(142,112)"/>
<path d="M0 0 C1.134375 0.12375 2.26875 0.2475 3.4375 0.375 C4.68273437 0.50841797 4.68273437 0.50841797 5.953125 0.64453125 C8.17555182 0.90381438 10.39402806 1.19763818 12.609375 1.51171875 C24.42532559 3.14050566 36.08642168 3.21609672 48 3 C48.49190076 14.62343268 47.47260251 24.66425531 40 34 C36.29188691 37.74977729 32.28115967 41.53299576 26.88671875 42.30078125 C19.21513104 42.34166005 13.37565983 40.08617706 7.640625 34.9453125 C2.77987708 29.18185425 -0.15142664 21.19972891 -0.09765625 13.671875 C-0.09282227 12.47304688 -0.09282227 12.47304688 -0.08789062 11.25 C-0.07951172 10.425 -0.07113281 9.6 -0.0625 8.75 C-0.05798828 7.90953125 -0.05347656 7.0690625 -0.04882812 6.203125 C-0.03707961 4.13538599 -0.01914522 2.06768376 0 0 Z " fill="#DD69A0" transform="translate(187,306)"/>
<path d="M0 0 C5.87421165 4.1344285 10.3256651 9.58591041 12.4375 16.5 C12.69110666 19.42225677 12.67195645 22.31892891 12.625 25.25 C12.62435547 26.02988281 12.62371094 26.80976562 12.62304688 27.61328125 C12.57807707 33.35942293 12.57807707 33.35942293 11.4375 34.5 C4.71528967 35.08966757 -1.17917692 33.78831647 -7.62524414 32.01098633 C-15.5354941 29.85204325 -23.4050353 29.31968537 -31.5625 28.9375 C-32.86767578 28.87272461 -32.86767578 28.87272461 -34.19921875 28.80664062 C-36.32018219 28.70175782 -38.44132433 28.60049925 -40.5625 28.5 C-41.26144012 20.33016658 -40.39111402 14.2622951 -35.5625 7.5 C-26.47129688 -2.47692696 -12.60535711 -7.03910685 0 0 Z " fill="#DD69A0" transform="translate(224.5625,68.5)"/>
<path d="M0 0 C3.28902165 0.29900197 5.56404634 0.72466085 8.375 2.5 C10.43802516 5.67388486 10.51905281 7.96796255 10.62890625 11.68359375 C9.64275755 15.31580605 7.94509233 16.66846857 5 19 C1.72707996 20.49699627 -1.65164969 21.61013876 -5.0625 22.75 C-14.12028037 25.98979694 -20.70921372 29.64996034 -28 36 C-29.05114787 36.86110983 -30.10594593 37.71778021 -31.1640625 38.5703125 C-33.79334762 40.69370985 -36.40291086 42.83746317 -39 45 C-38.4410143 48.54809222 -37.58584621 51.07527116 -35.65625 54.09765625 C-35.16020264 54.88527344 -34.66415527 55.67289063 -34.15307617 56.484375 C-33.60756104 57.33515625 -33.0620459 58.1859375 -32.5 59.0625 C-31.3176269 60.93793055 -30.13671572 62.81428333 -28.95703125 64.69140625 C-28.32104004 65.70090332 -27.68504883 66.71040039 -27.02978516 67.75048828 C-23.35659831 73.63094497 -19.7759588 79.56759938 -16.1875 85.5 C-14.80654003 87.78158431 -13.42486448 90.06273198 -12.04296875 92.34375 C-11.38474121 93.43429687 -10.72651367 94.52484375 -10.04833984 95.6484375 C-8.60977752 98.00226152 -7.15629235 100.3380906 -5.67431641 102.6640625 C-5.29785477 103.25981079 -4.92139313 103.85555908 -4.53352356 104.46936035 C-3.48297039 106.12843469 -2.42397367 107.78215361 -1.36450195 109.43554688 C-0.68907349 110.70495117 -0.68907349 110.70495117 0 112 C-0.33 112.66 -0.66 113.32 -1 114 C-6.75177461 109.86941523 -9.7773121 105.00453515 -13.3125 98.9375 C-14.54518485 96.86695642 -15.77827618 94.79665479 -17.01171875 92.7265625 C-17.65802246 91.63375977 -18.30432617 90.54095703 -18.97021484 89.41503906 C-22.11833381 84.11844439 -25.33003738 78.86103536 -28.53729248 73.60012817 C-29.62130319 71.81857564 -30.7012898 70.03465188 -31.77978516 68.24975586 C-35.08548534 62.78017239 -38.41100879 57.32643616 -41.81640625 51.91796875 C-42.38987793 50.99588623 -42.96334961 50.07380371 -43.55419922 49.1237793 C-44.61449016 47.42049877 -45.68708338 45.72479236 -46.77392578 44.03833008 C-47.46397705 42.92107544 -47.46397705 42.92107544 -48.16796875 41.78125 C-48.57297607 41.14251953 -48.9779834 40.50378906 -49.39526367 39.84570312 C-50 38 -50 38 -49.30761719 35.95263672 C-40.34658234 22.57131545 -24.05498968 15.48868432 -9.50390625 10.296875 C-5.60596061 8.93140395 -5.60596061 8.93140395 -2 7 C-0.70079254 3.45411499 -0.70079254 3.45411499 0 0 Z " fill="#64A957" transform="translate(881,169)"/>
<path d="M0 0 C5 1 5 1 7.25 3.3125 C9.7282957 7.11845411 10.12185019 10.19988534 10.17408752 14.68586731 C10.18702347 15.6236351 10.19995941 16.56140289 10.21328735 17.52758789 C10.22226044 18.54949219 10.23123352 19.57139648 10.24047852 20.62426758 C10.25347488 21.70600754 10.26647125 22.7877475 10.27986145 23.90226746 C10.40636637 35.19068298 10.46327023 46.47983425 10.51489258 57.76879883 C10.54015706 63.12628463 10.58949758 68.48299157 10.65844727 73.84008789 C10.74032685 80.30925329 10.78306523 86.7775732 10.79795647 93.24722862 C10.81021272 95.71166311 10.83626455 98.17606926 10.87640572 100.64020729 C10.92980831 104.09032897 10.93287936 107.53710203 10.92407227 110.98754883 C10.95126343 112.00338043 10.97845459 113.01921204 11.00646973 114.06582642 C10.95163038 118.23625778 10.87253626 120.92128224 8.19212151 124.23508263 C2.85590932 129 2.85590932 129 1 129 C0.67 86.43 0.34 43.86 0 0 Z " fill="#65AD5B" transform="translate(769,95)"/>
<path d="M0 0 C4.47832188 1.53542464 8.80427026 3.60854052 11 8 C11.70153846 15.13230769 11.70153846 15.13230769 8.625 18.9375 C4.54630575 22.14218834 1.73061759 22.15805353 -3.29199219 22.17700195 C-4.04342499 22.18357315 -4.79485779 22.19014435 -5.56906128 22.19691467 C-8.06166683 22.21666223 -10.55421205 22.22831443 -13.046875 22.23828125 C-13.89809181 22.24235678 -14.74930862 22.2464323 -15.62631989 22.25063133 C-20.13303892 22.27149985 -24.63972745 22.28579728 -29.14648438 22.29516602 C-33.79821402 22.30622272 -38.44946429 22.34061161 -43.10102463 22.38033772 C-46.68016438 22.40650591 -50.25919005 22.4148581 -53.83841705 22.41844749 C-55.55280031 22.42331418 -57.26717845 22.43493055 -58.9814682 22.45348549 C-61.38483926 22.47787848 -63.78697229 22.47691195 -66.19042969 22.4699707 C-67.24739548 22.48918579 -67.24739548 22.48918579 -68.32571411 22.50878906 C-73.65958504 22.45281268 -77.22383034 20.77616966 -81 17 C-81.04080783 15.00041636 -81.04254356 12.99954746 -81 11 C-69.50169079 10.29257845 -58.05257185 9.91985569 -46.53125 10.0078125 C-45.3851123 10.01568787 -44.23897461 10.02356323 -43.05810547 10.03167725 C-38.32780656 10.06806035 -33.59773347 10.11098136 -28.86767578 10.17138672 C-25.35967149 10.21357188 -21.85193745 10.23707846 -18.34375 10.2578125 C-17.27612427 10.27643341 -16.20849854 10.29505432 -15.10852051 10.3142395 C-7.9957455 10.46713108 -7.9957455 10.46713108 -2 7 C-0.63099646 3.42003741 -0.63099646 3.42003741 0 0 Z " fill="#62A956" transform="translate(892,295)"/>
<path d="M0 0 C3.97436316 2.09758056 6.59527117 4.17024667 9 8 C9.63894172 11.8336503 9.35137165 13.42739435 7.3125 16.75 C2.96112106 20.98377411 -1.18102611 21.25290029 -7.09765625 21.2746582 C-7.792612 21.27976913 -8.48756775 21.28488007 -9.20358276 21.29014587 C-11.48997725 21.30399249 -13.7760687 21.30308914 -16.0625 21.30078125 C-17.6576346 21.30467037 -19.25276816 21.30900548 -20.84790039 21.31376648 C-24.1867204 21.32121767 -27.52543463 21.32094503 -30.86425781 21.31567383 C-35.13817368 21.30987489 -39.41165679 21.32682549 -43.6855011 21.3500185 C-46.97809368 21.36476367 -50.27058215 21.36562659 -53.5632019 21.36250877 C-55.13883319 21.3630214 -56.7144704 21.36824825 -58.29006958 21.37832069 C-60.49444588 21.39068595 -62.69798048 21.38389417 -64.90234375 21.37231445 C-66.15523193 21.37294388 -67.40812012 21.3735733 -68.69897461 21.3742218 C-72.29545695 20.96650543 -74.14097961 20.18120297 -77 18 C-79.1519437 14.77208445 -79.20086443 13.71599191 -79 10 C-74.78057773 9.19407805 -70.83168328 8.89032527 -66.5390625 8.93408203 C-64.64679932 8.94871994 -64.64679932 8.94871994 -62.71630859 8.96365356 C-62.04976257 8.97101658 -61.38321655 8.97837959 -60.69647217 8.98596573 C-58.59403208 9.0081391 -56.49168406 9.02211966 -54.38916016 9.03366089 C-48.41491195 9.067116 -42.4408169 9.10888214 -36.46679688 9.17138672 C-32.80296211 9.20913725 -29.13928119 9.23208633 -25.47528076 9.24569321 C-24.08465267 9.25371758 -22.69404457 9.26728401 -21.30352783 9.28662491 C-19.35613834 9.31324903 -17.40850168 9.31937418 -15.4609375 9.32470703 C-13.80263916 9.33922409 -13.80263916 9.33922409 -12.11083984 9.35403442 C-8.47080843 8.93977445 -6.10667288 7.9222783 -3 6 C-1.09793151 2.94960779 -1.09793151 2.94960779 0 0 Z " fill="#63A956" transform="translate(786,296)"/>
<path d="M0 0 C1.97537032 7.63809855 2.57477229 15.1332874 3 23 C-5.24676093 27.31080685 -12.7811299 27.97140987 -22 27 C-27.60381108 24.98324381 -30.95208757 21.81984051 -33.5625 16.5 C-34.87327597 12.88929766 -35.80340492 9.83849017 -35 6 C-27.20826602 -3.09035631 -10.63768566 -2.51252004 0 0 Z " fill="#FCFCFB" transform="translate(489,250)"/>
<path d="M0 0 C0.80759766 -0.01611328 1.61519531 -0.03222656 2.44726562 -0.04882812 C9.17328478 -0.05424796 14.34687278 1.39843618 20.1875 4.875 C25.85233855 10.68891325 30.3834932 18.47931628 30.6875 26.6875 C30.64625 27.55375 30.605 28.42 30.5625 29.3125 C28.2734375 29.66796875 28.2734375 29.66796875 25.5625 29.3125 C23.7890625 26.86328125 23.7890625 26.86328125 22.1875 23.625 C18.64571788 17.10228195 15.75715216 13.94858839 8.73828125 11.2109375 C0.23549681 8.80547573 -9.00729745 10.11151116 -17.4375 12.3125 C-18.59958984 12.60447266 -18.59958984 12.60447266 -19.78515625 12.90234375 C-26.19452263 14.66361679 -32.12852863 17.310252 -38.140625 20.10546875 C-41.54761727 21.35281545 -43.8460829 21.68947144 -47.4375 21.3125 C-50.77511045 19.16159549 -52.17220933 18.10837201 -53.4375 14.3125 C-53.81040034 9.27834543 -53.42628273 6.42207626 -50.4375 2.3125 C-49.1904415 4.18308776 -47.97574492 6.07617186 -46.8125 8 C-44.56386791 10.66383502 -44.56386791 10.66383502 -40.91796875 10.69921875 C-35.61780156 10.54117522 -31.1780403 8.52955523 -26.375 6.4375 C-17.44130595 2.64419855 -9.78748685 -0.03887008 0 0 Z " fill="#64A958" transform="translate(458.4375,189.6875)"/>
<path d="M0 0 C0.99 0.495 0.99 0.495 2 1 C-8.1660234 10.88990918 -22.72603333 19.72792665 -37 22 C-37.03867188 23.59328125 -37.03867188 23.59328125 -37.078125 25.21875 C-37.44776485 35.60673506 -38.49681571 43.05545193 -46 51 C-54.13968342 57.19323739 -62.0247613 57.88084103 -72 57 C-79.71983379 55.13270254 -85.15245073 48.64750517 -89.16796875 42.09375 C-91.88629453 36.07004217 -91.26611146 29.46552298 -91 23 C-91.66 22.67 -92.32 22.34 -93 22 C-92.34 22 -91.68 22 -91 22 C-91 17.71 -91 13.42 -91 9 C-90.01 9 -89.02 9 -88 9 C-87.97421875 10.24394531 -87.9484375 11.48789062 -87.921875 12.76953125 C-87.56643732 24.5178685 -86.8684042 35.55791496 -79 45 C-73.45048453 49.76972407 -68.69383627 51.44005048 -61.375 51.34375 C-55.84773121 50.54375057 -52.0824768 47.0824768 -48.25 43.25 C-41.65035275 33.71717619 -40.92704131 24.30746434 -40 13 C-38.77667969 12.8040625 -37.55335938 12.608125 -36.29296875 12.40625 C-16.80127359 9.34422245 -16.80127359 9.34422245 0 0 Z " fill="#88B776" transform="translate(275,296)"/>
<path d="M0 0 C11.62235869 4.64894347 20.63652475 13.10917093 29.56787109 21.64013672 C31.55443192 23.52645513 33.5790184 25.36594051 35.625 27.1875 C36.21539062 27.71730469 36.80578125 28.24710938 37.4140625 28.79296875 C39.10427139 30.21415362 39.10427139 30.21415362 42 31 C41.74624791 34.72169726 41.39626084 36.55712024 38.875 39.375 C35.11470706 41.50038297 33.2727445 41.72419398 29 41 C23.23878114 37.87786708 18.84108932 32.904604 14.3203125 28.2578125 C10.79055826 24.82313582 6.94496181 21.94306675 3 19 C2.67 24.94 2.34 30.88 2 37 C1.34 36.67 0.68 36.34 0 36 C0 24.12 0 12.24 0 0 Z " fill="#62AA57" transform="translate(235,135)"/>
<path d="M0 0 C1.98 3.96 3.96 7.92 6 12 C3.93821926 13.75085334 1.87560123 15.50070381 -0.1875 17.25 C-0.76564453 17.74113281 -1.34378906 18.23226563 -1.93945312 18.73828125 C-2.50986328 19.22167969 -3.08027344 19.70507812 -3.66796875 20.203125 C-4.51137817 20.93354004 -4.51137817 20.93354004 -5.37182617 21.67871094 C-7 23 -7 23 -9.875 24.71875 C-13.28663601 28.3812416 -12.78206004 32.42019366 -12.8125 37.25 C-12.83763672 38.18585938 -12.86277344 39.12171875 -12.88867188 40.0859375 C-12.9474757 42.39104732 -12.98380267 44.69426174 -13 47 C-17.48502438 44.75748781 -19.73410992 42.48646236 -22 38 C-23.58907545 30.97941256 -23.90789337 22.96992242 -22 16 C-19.03266812 11.38340447 -14.50390268 8.71475406 -9.79980469 6.08935547 C-7.91391088 4.94789343 -6.32691117 3.66665584 -4.6640625 2.22265625 C-2 0 -2 0 0 0 Z " fill="#63AA57" transform="translate(792,239)"/>
<path d="M0 0 C2.59745406 2.59745406 2.94335407 4.44486987 3.3125 8.0625 C2.50628581 18.22079884 -2.61634368 25.26111367 -10 32 C-24.03261584 43.36778747 -24.03261584 43.36778747 -32.4375 44.4375 C-36.06653871 43.99182858 -38.02209442 43.20810628 -40.70703125 40.703125 C-43.09699415 37.55501677 -44.32283064 33.87280004 -45 30 C-44.67 29.34 -44.34 28.68 -44 28 C-43.7525 28.639375 -43.505 29.27875 -43.25 29.9375 C-42.20778876 32.09996117 -42.20778876 32.09996117 -40.3125 32.75 C-30.50194527 33.81060051 -25.38908158 31.00910483 -17.8125 25.0625 C-14.35335354 22.20195009 -11.04152118 19.3098907 -8 16 C-7.319375 15.29875 -6.63875 14.5975 -5.9375 13.875 C-3.05431723 9.5967288 -1.60579224 4.87716687 0 0 Z " fill="#66AB5A" transform="translate(708,195)"/>
<path d="M0 0 C6.47090655 2.58836262 10.95340362 6.12197384 15 11.8125 C16.87621766 17.79294379 16.98441913 23.53684008 14.375 29.3125 C10.85847333 35.44165741 6.77513399 37.741622 0 40 C0 26.8 0 13.6 0 0 Z " fill="#63A856" transform="translate(235,237)"/>
<path d="M0 0 C1.08023437 -0.00257813 2.16046875 -0.00515625 3.2734375 -0.0078125 C6.78130739 0.131194 10.16019454 0.57238546 13.625 1.125 C14.3031037 4.78964553 14.96538144 8.45698596 15.625 12.125 C15.81578125 13.15496094 16.0065625 14.18492187 16.203125 15.24609375 C17.22411003 20.97090269 17.84863149 26.31058138 17.625 32.125 C16.305 32.785 14.985 33.445 13.625 34.125 C12.72295976 31.41887929 12.358784 29.2719392 12.08984375 26.45703125 C11.95932617 25.11801758 11.95932617 25.11801758 11.82617188 23.75195312 C11.6956543 22.35879883 11.6956543 22.35879883 11.5625 20.9375 C11.47162109 19.99712891 11.38074219 19.05675781 11.28710938 18.08789062 C11.06328717 15.7672078 10.84270754 13.44626311 10.625 11.125 C-7.74151212 10.24090766 -7.74151212 10.24090766 -24.375 17.125 C-23.96058243 11.84117594 -23.26341677 8.81401078 -19.375 5.125 C-13.06134277 1.20207908 -7.41855059 -0.01762126 0 0 Z " fill="#65A758" transform="translate(478.375,238.875)"/>
<path d="M0 0 C9.03607221 4.34426549 12.76252258 12.02723767 16.21484375 21.01171875 C16.98269693 23.93414502 17.0826041 25.23633364 16 28 C15.62488281 27.18015625 15.24976563 26.3603125 14.86328125 25.515625 C14.35152344 24.43796875 13.83976563 23.3603125 13.3125 22.25 C12.81363281 21.18265625 12.31476562 20.1153125 11.80078125 19.015625 C9.20234713 14.66423424 5.71499625 11.85969972 1 10 C-3.84043894 9.24313137 -7.16918775 9.51661833 -11.4375 12 C-12.283125 12.66 -13.12875 13.32 -14 14 C-14.66 14 -15.32 14 -16 14 C-17.51974685 16.94408359 -18.82972262 19.9250876 -20.0625 23 C-20.40410156 23.845625 -20.74570312 24.69125 -21.09765625 25.5625 C-22.40609577 29.09698596 -23.11686838 32.34666079 -23.31640625 36.109375 C-23.35830078 36.86347656 -23.40019531 37.61757812 -23.44335938 38.39453125 C-23.50233398 39.56048828 -23.50233398 39.56048828 -23.5625 40.75 C-23.60568359 41.54277344 -23.64886719 42.33554688 -23.69335938 43.15234375 C-23.79902991 45.10137815 -23.89997966 47.05066748 -24 49 C-24.33 49 -24.66 49 -25 49 C-27.47494798 36.00652313 -27.39715422 20.32676863 -20.125 8.875 C-14.45209708 1.28290605 -9.29230969 -1.00379889 0 0 Z " fill="#69A55A" transform="translate(642,177)"/>
<path d="M0 0 C5.86777264 4.12989655 10.33873058 9.58753925 12.4375 16.5 C12.66705319 19.44340602 12.62679027 22.36256575 12.5625 25.3125 C12.55347656 26.10076172 12.54445312 26.88902344 12.53515625 27.70117188 C12.51172504 29.63424666 12.47585838 31.5671638 12.4375 33.5 C11.4475 33.83 10.4575 34.16 9.4375 34.5 C9.36273438 33.46101563 9.28796875 32.42203125 9.2109375 31.3515625 C8.31052953 21.11663865 6.50044633 13.43945984 -1.125 6 C-7.43618372 2.11619463 -13.27770939 1.7170089 -20.5625 2.5 C-28.5143858 6.18142861 -32.79592175 13.13342623 -35.80078125 21.0703125 C-36.57229264 23.53123601 -37.10659658 25.96319088 -37.5625 28.5 C-38.5525 28.5 -39.5425 28.5 -40.5625 28.5 C-41.26144012 20.33016658 -40.39111402 14.2622951 -35.5625 7.5 C-26.47129688 -2.47692696 -12.60535711 -7.03910685 0 0 Z " fill="#8BB677" transform="translate(224.5625,68.5)"/>
<path d="M0 0 C11.88 0 23.76 0 36 0 C34.73618811 6.31905945 34.73618811 6.31905945 31 9 C27.70019531 9.45410156 27.70019531 9.45410156 23.828125 9.390625 C23.1457074 9.38496521 22.46328979 9.37930542 21.76019287 9.37347412 C19.58940238 9.35115636 17.42028794 9.30097508 15.25 9.25 C13.7747635 9.22992876 12.29950101 9.21167907 10.82421875 9.1953125 C7.21560499 9.1513088 3.60796619 9.08231583 0 9 C0 6.03 0 3.06 0 0 Z " fill="#61AA56" transform="translate(365,187)"/>
<path d="M0 0 C0.66 0.33 1.32 0.66 2 1 C-7.24574326 9.9946243 -22.04935412 20.522369 -35.41796875 21.1640625 C-36.27003906 21.10992187 -37.12210938 21.05578125 -38 21 C-38 18.36 -38 15.72 -38 13 C-36.741875 12.731875 -35.48375 12.46375 -34.1875 12.1875 C-25.87908228 10.31390658 -17.91635382 8.09031705 -10 4.9375 C-9.02909424 4.55126465 -9.02909424 4.55126465 -8.03857422 4.15722656 C-5.12513501 2.96910284 -2.62951139 1.7530076 0 0 Z " fill="#66AA5A" transform="translate(275,296)"/>
<path d="M0 0 C0.99 0 1.98 0 3 0 C3 17.16 3 34.32 3 52 C2.01 52 1.02 52 0 52 C-0.16964498 46.68407254 -0.3299518 41.36796851 -0.48217773 36.05151367 C-0.53504555 34.24870515 -0.59031978 32.44596532 -0.64819336 30.64331055 C-0.97709053 20.34453916 -1.12812898 10.26138596 0 0 Z " fill="#89B374" transform="translate(184,221)"/>
<path d="M0 0 C4.95 0 9.9 0 15 0 C15 6.93 15 13.86 15 21 C12.68758201 17.91677601 10.6468381 14.89104615 8.625 11.625 C5.99627832 7.4558809 3.27748556 3.67475653 0 0 Z " fill="#F9F8F8" transform="translate(287,196)"/>
<path d="M0 0 C1.32 0 2.64 0 4 0 C4 6.27 4 12.54 4 19 C1 18 1 18 -0.6875 15.5 C-2.27794225 11.25882065 -2.65833565 7.48865215 -2 3 C-1.34 2.01 -0.68 1.02 0 0 Z " fill="#FCF9FB" transform="translate(180,134)"/>
<path d="M0 0 C0.66 0 1.32 0 2 0 C3.61598797 35.1520361 3.61598797 35.1520361 2 40 C1.34 40 0.68 40 0 40 C0 26.8 0 13.6 0 0 Z " fill="#8DBC7C" transform="translate(235,237)"/>
<path d="M0 0 C0 8.91 0 17.82 0 27 C-0.99 26.67 -1.98 26.34 -3 26 C-3 19.4 -3 12.8 -3 6 C-4.32 5.67 -5.64 5.34 -7 5 C-1.125 0 -1.125 0 0 0 Z " fill="#86AF71" transform="translate(187,128)"/>
<path d="M0 0 C0.66 0 1.32 0 2 0 C2.96676276 12.44892967 2.89735751 24.54743891 2 37 C1.34 36.67 0.68 36.34 0 36 C0 24.12 0 12.24 0 0 Z " fill="#84B672" transform="translate(235,135)"/>
<path d="M0 0 C0.33 0 0.66 0 1 0 C1.13496251 2.10241603 1.23197307 4.2072961 1.3125 6.3125 C1.39951172 8.07013672 1.39951172 8.07013672 1.48828125 9.86328125 C1 13 1 13 -1.51953125 14.91796875 C-2.33808594 15.27503906 -3.15664063 15.63210938 -4 16 C-3.6083965 10.04492601 -2.62875405 5.37180176 0 0 Z " fill="#76A164" transform="translate(397,254)"/>
<path d="M0 0 C2.17975324 3.87058987 3.34062815 8.02352055 4.625 12.25 C4.85445312 12.99507813 5.08390625 13.74015625 5.3203125 14.5078125 C5.88332007 16.3375871 6.44208228 18.16866703 7 20 C5.68 20 4.36 20 3 20 C1.28878246 15.47849025 0.64776388 11.44382847 0.375 6.625 C0.30023437 5.37976563 0.22546875 4.13453125 0.1484375 2.8515625 C0.09945312 1.91054687 0.05046875 0.96953125 0 0 Z " fill="#7C9F68" transform="translate(560,251)"/>
<path d="M0 0 C3.02990095 1.71967351 5.76327296 3.29238306 8 6 C8 6.66 8 7.32 8 8 C4.11137013 6.73882275 2.10624401 5.54735833 0 2 C0 1.34 0 0.68 0 0 Z " fill="#72A563" transform="translate(705,130)"/>
<path d="M0 0 C2.79872437 2.52788007 4.45773019 4.20411134 5 8 C3.68 8 2.36 8 1 8 C0.67 5.36 0.34 2.72 0 0 Z " fill="#6C9F5A" transform="translate(562,263)"/>
</svg>
